<?xml version="1.0" standalone="yes"?>

<svg version="1.1" viewBox="0.0 0.0 731.5958005249344 450.13123359580055" fill="none" stroke="none" stroke-linecap="square" stroke-miterlimit="10" xmlns="http://www.w3.org/2000/svg" xmlns:xlink="http://www.w3.org/1999/xlink"><clipPath id="p.0"><path d="m0 0l731.5958 0l0 450.13123l-731.5958 0l0 -450.13123z" clip-rule="nonzero"></path></clipPath><g clip-path="url(#p.0)"><path fill="#000000" fill-opacity="0.0" d="m0 0l731.5958 0l0 450.13123l-731.5958 0z" fill-rule="evenodd"></path><path fill="#cfe2f3" d="m166.08136 164.76378l175.3071 0l0 86.3307l-175.3071 0z" fill-rule="evenodd"></path><path stroke="#000000" stroke-width="1.0" stroke-linejoin="round" stroke-linecap="butt" d="m166.08136 164.76378l175.3071 0l0 86.3307l-175.3071 0z" fill-rule="evenodd"></path><path fill="#000000" d="m203.64401 213.25539l0 1.59375l-7.921875 0l0 -13.171875l1.84375 0l0 11.578125l6.078125 0zm10.354477 -3.34375q0 1.171875 -0.34375 2.125q-0.328125 0.953125 -0.953125 1.640625q-0.609375 0.671875 -1.46875 1.046875q-0.859375 0.375 -1.859375 0.375q-1.015625 0 -1.875 -0.375q-0.84375 -0.375 -1.46875 -1.046875q-0.609375 -0.6875 -0.953125 -1.640625q-0.34375 -0.953125 -0.34375 -2.125q0 -1.15625 0.34375 -2.109375q0.34375 -0.96875 0.953125 -1.65625q0.625 -0.6875 1.46875 -1.046875q0.859375 -0.375 1.875 -0.375q1.0 0 1.859375 0.375q0.859375 0.359375 1.46875 1.046875q0.625 0.6875 0.953125 1.65625q0.34375 0.953125 0.34375 2.109375zm-1.84375 0q0 -1.671875 -0.75 -2.640625q-0.75 -0.984375 -2.03125 -0.984375q-1.296875 0 -2.046875 0.984375q-0.75 0.96875 -0.75 2.640625q0 1.671875 0.75 2.65625q0.75 0.96875 2.046875 0.96875q1.28125 0 2.03125 -0.96875q0.75 -0.984375 0.75 -2.65625zm7.475937 3.671875q0.625 0 1.109375 -0.03125q0.484375 -0.03125 0.8125 -0.109375l0 -2.9375q-0.1875 -0.109375 -0.625 -0.171875q-0.421875 -0.0625 -1.03125 -0.0625q-0.390625 0 -0.84375 0.0625q-0.4375 0.046875 -0.8125 0.234375q-0.375 0.171875 -0.625 0.484375q-0.234375 0.3125 -0.234375 0.828125q0 0.953125 0.59375 1.328125q0.609375 0.375 1.65625 0.375zm-0.140625 -8.859375q1.0625 0 1.78125 0.28125q0.734375 0.265625 1.171875 0.78125q0.453125 0.5 0.640625 1.1875q0.203125 0.6875 0.203125 1.53125l0 6.171875q-0.234375 0.03125 -0.640625 0.109375q-0.40625 0.0625 -0.921875 0.109375q-0.515625 0.0625 -1.109375 0.109375q-0.59375 0.046875 -1.1875 0.046875q-0.84375 0 -1.546875 -0.171875q-0.703125 -0.171875 -1.21875 -0.53125q-0.5 -0.375 -0.796875 -0.984375q-0.28125 -0.609375 -0.28125 -1.453125q0 -0.828125 0.328125 -1.40625q0.34375 -0.59375 0.90625 -0.953125q0.578125 -0.359375 1.328125 -0.53125q0.765625 -0.171875 1.609375 -0.171875q0.265625 0 0.546875 0.03125q0.28125 0.015625 0.53125 0.0625q0.265625 0.046875 0.453125 0.09375q0.1875 0.03125 0.265625 0.0625l0 -0.5q0 -0.4375 -0.09375 -0.859375q-0.09375 -0.4375 -0.34375 -0.765625q-0.25 -0.328125 -0.671875 -0.53125q-0.421875 -0.203125 -1.109375 -0.203125q-0.875 0 -1.53125 0.125q-0.65625 0.125 -0.984375 0.25l-0.203125 -1.453125q0.34375 -0.15625 1.140625 -0.296875q0.796875 -0.140625 1.734375 -0.140625zm12.926071 2.328125q-0.328125 -0.265625 -0.9375 -0.5q-0.609375 -0.25 -1.328125 -0.25q-0.75 0 -1.296875 0.28125q-0.546875 0.265625 -0.890625 0.75q-0.34375 0.484375 -0.5 1.15625q-0.140625 0.65625 -0.140625 1.421875q0 1.71875 0.84375 2.671875q0.859375 0.9375 2.296875 0.9375q0.71875 0 1.203125 -0.0625q0.484375 -0.078125 0.75 -0.140625l0 -6.265625zm0 -6.640625l1.765625 -0.3125l0 14.46875q-0.609375 0.171875 -1.5625 0.34375q-0.953125 0.171875 -2.1875 0.171875q-1.140625 0 -2.046875 -0.359375q-0.90625 -0.375 -1.5625 -1.03125q-0.640625 -0.671875 -1.0 -1.625q-0.34375 -0.96875 -0.34375 -2.15625q0 -1.140625 0.296875 -2.09375q0.296875 -0.953125 0.859375 -1.625q0.578125 -0.6875 1.390625 -1.0625q0.828125 -0.390625 1.90625 -0.390625q0.84375 0 1.5 0.234375q0.65625 0.21875 0.984375 0.4375l0 -5.0zm12.5793915 14.546875q-0.40625 0 -0.875 -0.015625q-0.453125 -0.015625 -0.921875 -0.0625q-0.46875 -0.03125 -0.921875 -0.078125q-0.453125 -0.0625 -0.828125 -0.15625l0 -12.78125q0.375 -0.09375 0.828125 -0.140625q0.453125 -0.0625 0.921875 -0.09375q0.46875 -0.046875 0.921875 -0.0625q0.453125 -0.015625 0.859375 -0.015625q1.140625 0 2.125 0.171875q1.0 0.171875 1.734375 0.578125q0.734375 0.40625 1.15625 1.078125q0.421875 0.65625 0.421875 1.625q0 1.078125 -0.515625 1.78125q-0.515625 0.6875 -1.375 1.03125q1.15625 0.34375 1.84375 1.09375q0.6875 0.734375 0.6875 2.078125q0 1.984375 -1.453125 2.984375q-1.453125 0.984375 -4.609375 0.984375zm-1.734375 -6.25l0 4.640625q0.21875 0.015625 0.5 0.03125q0.25 0.03125 0.578125 0.046875q0.328125 0 0.765625 0q0.828125 0 1.546875 -0.109375q0.734375 -0.109375 1.28125 -0.375q0.5625 -0.265625 0.890625 -0.734375q0.328125 -0.46875 0.328125 -1.203125q0 -0.640625 -0.25 -1.078125q-0.234375 -0.453125 -0.703125 -0.71875q-0.46875 -0.265625 -1.125 -0.375q-0.640625 -0.125 -1.4375 -0.125l-2.375 0zm0 -1.484375l1.9375 0q0.6875 0 1.296875 -0.09375q0.609375 -0.09375 1.046875 -0.328125q0.453125 -0.25 0.703125 -0.640625q0.265625 -0.40625 0.265625 -1.015625q0 -0.578125 -0.265625 -0.96875q-0.265625 -0.390625 -0.734375 -0.625q-0.46875 -0.234375 -1.09375 -0.34375q-0.625 -0.125 -1.328125 -0.125q-0.703125 0 -1.109375 0.03125q-0.390625 0.015625 -0.71875 0.046875l0 4.0625zm13.402222 6.359375q0.625 0 1.109375 -0.03125q0.484375 -0.03125 0.8125 -0.109375l0 -2.9375q-0.1875 -0.109375 -0.625 -0.171875q-0.421875 -0.0625 -1.03125 -0.0625q-0.390625 0 -0.84375 0.0625q-0.4375 0.046875 -0.8125 0.234375q-0.375 0.171875 -0.625 0.484375q-0.234375 0.3125 -0.234375 0.828125q0 0.953125 0.59375 1.328125q0.609375 0.375 1.65625 0.375zm-0.140625 -8.859375q1.0625 0 1.78125 0.28125q0.734375 0.265625 1.171875 0.78125q0.453125 0.5 0.640625 1.1875q0.203125 0.6875 0.203125 1.53125l0 6.171875q-0.234375 0.03125 -0.640625 0.109375q-0.40625 0.0625 -0.921875 0.109375q-0.515625 0.0625 -1.109375 0.109375q-0.59375 0.046875 -1.1875 0.046875q-0.84375 0 -1.546875 -0.171875q-0.703125 -0.171875 -1.21875 -0.53125q-0.5 -0.375 -0.796875 -0.984375q-0.28125 -0.609375 -0.28125 -1.453125q0 -0.828125 0.328125 -1.40625q0.34375 -0.59375 0.90625 -0.953125q0.578125 -0.359375 1.328125 -0.53125q0.765625 -0.171875 1.609375 -0.171875q0.265625 0 0.546875 0.03125q0.28125 0.015625 0.53125 0.0625q0.265625 0.046875 0.453125 0.09375q0.1875 0.03125 0.265625 0.0625l0 -0.5q0 -0.4375 -0.09375 -0.859375q-0.09375 -0.4375 -0.34375 -0.765625q-0.25 -0.328125 -0.671875 -0.53125q-0.421875 -0.203125 -1.109375 -0.203125q-0.875 0 -1.53125 0.125q-0.65625 0.125 -0.984375 0.25l-0.203125 -1.453125q0.34375 -0.15625 1.140625 -0.296875q0.796875 -0.140625 1.734375 -0.140625zm9.504211 10.3125q-1.640625 -0.03125 -2.328125 -0.6875q-0.671875 -0.671875 -0.671875 -2.078125l0 -11.859375l1.765625 -0.3125l0 11.875q0 0.4375 0.078125 0.734375q0.078125 0.28125 0.25 0.453125q0.171875 0.171875 0.453125 0.265625q0.28125 0.078125 0.703125 0.125l-0.25 1.484375zm5.4681396 -1.453125q0.625 0 1.109375 -0.03125q0.484375 -0.03125 0.8125 -0.109375l0 -2.9375q-0.1875 -0.109375 -0.625 -0.171875q-0.421875 -0.0625 -1.03125 -0.0625q-0.390625 0 -0.84375 0.0625q-0.4375 0.046875 -0.8125 0.234375q-0.375 0.171875 -0.625 0.484375q-0.234375 0.3125 -0.234375 0.828125q0 0.953125 0.59375 1.328125q0.609375 0.375 1.65625 0.375zm-0.140625 -8.859375q1.0625 0 1.78125 0.28125q0.734375 0.265625 1.171875 0.78125q0.453125 0.5 0.640625 1.1875q0.203125 0.6875 0.203125 1.53125l0 6.171875q-0.234375 0.03125 -0.640625 0.109375q-0.40625 0.0625 -0.921875 0.109375q-0.515625 0.0625 -1.109375 0.109375q-0.59375 0.046875 -1.1875 0.046875q-0.84375 0 -1.546875 -0.171875q-0.703125 -0.171875 -1.21875 -0.53125q-0.5 -0.375 -0.796875 -0.984375q-0.28125 -0.609375 -0.28125 -1.453125q0 -0.828125 0.328125 -1.40625q0.34375 -0.59375 0.90625 -0.953125q0.578125 -0.359375 1.328125 -0.53125q0.765625 -0.171875 1.609375 -0.171875q0.265625 0 0.546875 0.03125q0.28125 0.015625 0.53125 0.0625q0.265625 0.046875 0.453125 0.09375q0.1875 0.03125 0.265625 0.0625l0 -0.5q0 -0.4375 -0.09375 -0.859375q-0.09375 -0.4375 -0.34375 -0.765625q-0.25 -0.328125 -0.671875 -0.53125q-0.421875 -0.203125 -1.109375 -0.203125q-0.875 0 -1.53125 0.125q-0.65625 0.125 -0.984375 0.25l-0.203125 -1.453125q0.34375 -0.15625 1.140625 -0.296875q0.796875 -0.140625 1.734375 -0.140625zm6.5354614 0.53125q0.609375 -0.15625 1.609375 -0.328125q1.015625 -0.171875 2.328125 -0.171875q1.171875 0 1.953125 0.34375q0.78125 0.328125 1.25 0.921875q0.46875 0.59375 0.65625 1.4375q0.1875 0.828125 0.1875 1.84375l0 5.546875l-1.765625 0l0 -5.171875q0 -0.90625 -0.125 -1.546875q-0.125 -0.65625 -0.40625 -1.046875q-0.28125 -0.40625 -0.765625 -0.578125q-0.46875 -0.1875 -1.171875 -0.1875q-0.28125 0 -0.59375 0.015625q-0.296875 0.015625 -0.578125 0.046875q-0.28125 0.03125 -0.5 0.078125q-0.21875 0.03125 -0.3125 0.046875l0 8.34375l-1.765625 0l0 -9.59375zm15.005554 9.828125q-1.203125 0 -2.109375 -0.375q-0.890625 -0.390625 -1.515625 -1.078125q-0.609375 -0.6875 -0.921875 -1.625q-0.296875 -0.9375 -0.296875 -2.078125q0 -1.140625 0.328125 -2.09375q0.34375 -0.953125 0.9375 -1.640625q0.609375 -0.6875 1.484375 -1.078125q0.890625 -0.390625 1.984375 -0.390625q0.65625 0 1.3125 0.109375q0.671875 0.109375 1.28125 0.359375l-0.390625 1.5q-0.40625 -0.1875 -0.9375 -0.296875q-0.515625 -0.109375 -1.09375 -0.109375q-1.484375 0 -2.28125 0.9375q-0.78125 0.921875 -0.78125 2.703125q0 0.796875 0.171875 1.46875q0.1875 0.65625 0.578125 1.140625q0.390625 0.46875 1.0 0.734375q0.609375 0.25 1.484375 0.25q0.703125 0 1.265625 -0.125q0.578125 -0.140625 0.890625 -0.296875l0.25 1.484375q-0.15625 0.09375 -0.4375 0.1875q-0.28125 0.078125 -0.640625 0.140625q-0.359375 0.078125 -0.78125 0.125q-0.40625 0.046875 -0.78125 0.046875zm3.831421 -5.15625q0 -1.3125 0.375 -2.28125q0.390625 -0.984375 1.015625 -1.625q0.625 -0.65625 1.4375 -0.96875q0.8125 -0.328125 1.671875 -0.328125q2.0 0 3.0625 1.25q1.0625 1.234375 1.0625 3.78125q0 0.109375 0 0.296875q0 0.1875 -0.015625 0.328125l-6.765625 0q0.109375 1.546875 0.890625 2.34375q0.78125 0.796875 2.4375 0.796875q0.921875 0 1.5625 -0.15625q0.640625 -0.171875 0.953125 -0.328125l0.25 1.484375q-0.3125 0.171875 -1.125 0.359375q-0.8125 0.203125 -1.828125 0.203125q-1.296875 0 -2.234375 -0.390625q-0.9375 -0.390625 -1.546875 -1.078125q-0.609375 -0.6875 -0.90625 -1.625q-0.296875 -0.9375 -0.296875 -2.0625zm6.78125 -0.96875q0.015625 -1.203125 -0.609375 -1.96875q-0.609375 -0.765625 -1.6875 -0.765625q-0.609375 0 -1.078125 0.234375q-0.46875 0.234375 -0.796875 0.625q-0.3125 0.375 -0.5 0.875q-0.171875 0.484375 -0.234375 1.0l4.90625 0zm7.850708 -4.203125q0.21875 0 0.515625 0.03125q0.296875 0.03125 0.578125 0.078125q0.296875 0.046875 0.53125 0.09375q0.234375 0.046875 0.34375 0.09375l-0.296875 1.53125q-0.21875 -0.078125 -0.703125 -0.171875q-0.484375 -0.109375 -1.234375 -0.109375q-0.5 0 -0.984375 0.109375q-0.484375 0.09375 -0.640625 0.140625l0 8.296875l-1.765625 0l0 -9.46875q0.625 -0.21875 1.5625 -0.421875q0.9375 -0.203125 2.09375 -0.203125z" fill-rule="nonzero"></path><path fill="#cfe2f3" d="m483.9265 22.590551l175.30707 0l0 86.3307l-175.30707 0z" fill-rule="evenodd"></path><path stroke="#000000" stroke-width="1.0" stroke-linejoin="round" stroke-linecap="butt" d="m483.9265 22.590551l175.30707 0l0 86.3307l-175.30707 0z" fill-rule="evenodd"></path><path fill="#000000" d="m536.5731 72.95715q-1.28125 0 -2.234375 -0.390625q-0.953125 -0.40625 -1.5625 -1.09375q-0.609375 -0.703125 -0.90625 -1.640625q-0.296875 -0.953125 -0.296875 -2.0625l0 -8.265625l1.84375 0l0 8.0625q0 1.96875 0.875 2.875q0.875 0.890625 2.28125 0.890625q0.703125 0 1.28125 -0.21875q0.578125 -0.21875 1.0 -0.671875q0.421875 -0.46875 0.640625 -1.171875q0.234375 -0.71875 0.234375 -1.703125l0 -8.0625l1.84375 0l0 8.265625q0 1.109375 -0.296875 2.0625q-0.296875 0.9375 -0.921875 1.640625q-0.609375 0.6875 -1.546875 1.09375q-0.9375 0.390625 -2.234375 0.390625zm14.67926 -5.203125q0 -1.734375 -0.859375 -2.65625q-0.84375 -0.9375 -2.265625 -0.9375q-0.796875 0 -1.25 0.0625q-0.453125 0.0625 -0.71875 0.125l0 6.234375q0.328125 0.265625 0.9375 0.515625q0.609375 0.25 1.328125 0.25q0.765625 0 1.296875 -0.265625q0.546875 -0.28125 0.890625 -0.765625q0.34375 -0.484375 0.484375 -1.140625q0.15625 -0.65625 0.15625 -1.421875zm1.84375 0q0 1.125 -0.296875 2.078125q-0.28125 0.9375 -0.859375 1.625q-0.5625 0.6875 -1.390625 1.078125q-0.828125 0.375 -1.890625 0.375q-0.859375 0 -1.515625 -0.234375q-0.65625 -0.234375 -0.984375 -0.4375l0 3.953125l-1.765625 0l0 -13.09375q0.625 -0.15625 1.5625 -0.328125q0.953125 -0.1875 2.1875 -0.1875q1.140625 0 2.046875 0.375q0.921875 0.359375 1.5625 1.03125q0.640625 0.65625 0.984375 1.609375q0.359375 0.953125 0.359375 2.15625zm4.5823364 3.65625q1.09375 0 1.609375 -0.28125q0.53125 -0.296875 0.53125 -0.921875q0 -0.640625 -0.515625 -1.015625q-0.515625 -0.390625 -1.6875 -0.859375q-0.578125 -0.234375 -1.109375 -0.46875q-0.515625 -0.234375 -0.890625 -0.5625q-0.375 -0.328125 -0.609375 -0.78125q-0.234375 -0.453125 -0.234375 -1.125q0 -1.3125 0.96875 -2.078125q0.96875 -0.765625 2.640625 -0.765625q0.421875 0 0.84375 0.046875q0.421875 0.046875 0.78125 0.109375q0.359375 0.0625 0.625 0.140625q0.28125 0.078125 0.4375 0.140625l-0.328125 1.515625q-0.28125 -0.15625 -0.890625 -0.3125q-0.609375 -0.15625 -1.46875 -0.15625q-0.734375 0 -1.296875 0.296875q-0.546875 0.28125 -0.546875 0.921875q0 0.3125 0.125 0.5625q0.125 0.25 0.375 0.453125q0.265625 0.1875 0.640625 0.359375q0.390625 0.171875 0.921875 0.359375q0.703125 0.265625 1.25 0.53125q0.546875 0.25 0.9375 0.59375q0.390625 0.34375 0.59375 0.828125q0.21875 0.484375 0.21875 1.1875q0 1.375 -1.015625 2.078125q-1.015625 0.703125 -2.90625 0.703125q-1.296875 0 -2.046875 -0.21875q-0.734375 -0.21875 -1.0 -0.34375l0.3125 -1.515625q0.3125 0.109375 0.96875 0.34375q0.671875 0.234375 1.765625 0.234375zm7.6800537 -8.609375l3.75 0l0 1.484375l-3.75 0l0 4.546875q0 0.75 0.109375 1.234375q0.125 0.484375 0.34375 0.765625q0.234375 0.265625 0.578125 0.390625q0.34375 0.109375 0.796875 0.109375q0.796875 0 1.28125 -0.171875q0.484375 -0.1875 0.671875 -0.265625l0.34375 1.453125q-0.265625 0.140625 -0.9375 0.328125q-0.65625 0.203125 -1.515625 0.203125q-1.0 0 -1.65625 -0.25q-0.65625 -0.25 -1.0625 -0.765625q-0.390625 -0.515625 -0.5625 -1.265625q-0.15625 -0.75 -0.15625 -1.734375l0 -8.828125l1.765625 -0.296875l0 3.0625zm9.499817 -0.21875q0.21875 0 0.515625 0.03125q0.296875 0.03125 0.578125 0.078125q0.296875 0.046875 0.53125 0.09375q0.234375 0.046875 0.34375 0.09375l-0.296875 1.53125q-0.21875 -0.078125 -0.703125 -0.171875q-0.484375 -0.109375 -1.234375 -0.109375q-0.5 0 -0.984375 0.109375q-0.484375 0.09375 -0.640625 0.140625l0 8.296875l-1.765625 0l0 -9.46875q0.625 -0.21875 1.5625 -0.421875q0.9375 -0.203125 2.09375 -0.203125zm2.998169 5.171875q0 -1.3125 0.375 -2.28125q0.390625 -0.984375 1.015625 -1.625q0.625 -0.65625 1.4375 -0.96875q0.8125 -0.328125 1.671875 -0.328125q2.0 0 3.0625 1.25q1.0625 1.234375 1.0625 3.78125q0 0.109375 0 0.296875q0 0.1875 -0.015625 0.328125l-6.765625 0q0.109375 1.546875 0.890625 2.34375q0.78125 0.796875 2.4375 0.796875q0.921875 0 1.5625 -0.15625q0.640625 -0.171875 0.953125 -0.328125l0.25 1.484375q-0.3125 0.171875 -1.125 0.359375q-0.8125 0.203125 -1.828125 0.203125q-1.296875 0 -2.234375 -0.390625q-0.9375 -0.390625 -1.546875 -1.078125q-0.609375 -0.6875 -0.90625 -1.625q-0.296875 -0.9375 -0.296875 -2.0625zm6.78125 -0.96875q0.015625 -1.203125 -0.609375 -1.96875q-0.609375 -0.765625 -1.6875 -0.765625q-0.609375 0 -1.078125 0.234375q-0.46875 0.234375 -0.796875 0.625q-0.3125 0.375 -0.5 0.875q-0.171875 0.484375 -0.234375 1.0l4.90625 0zm7.538208 4.625q0.625 0 1.109375 -0.03125q0.484375 -0.03125 0.8125 -0.109375l0 -2.9375q-0.1875 -0.109375 -0.625 -0.171875q-0.421875 -0.0625 -1.03125 -0.0625q-0.390625 0 -0.84375 0.0625q-0.4375 0.046875 -0.8125 0.234375q-0.375 0.171875 -0.625 0.484375q-0.234375 0.3125 -0.234375 0.828125q0 0.953125 0.59375 1.328125q0.609375 0.375 1.65625 0.375zm-0.140625 -8.859375q1.0625 0 1.78125 0.28125q0.734375 0.265625 1.171875 0.78125q0.453125 0.5 0.640625 1.1875q0.203125 0.6875 0.203125 1.53125l0 6.171875q-0.234375 0.03125 -0.640625 0.109375q-0.40625 0.0625 -0.921875 0.109375q-0.515625 0.0625 -1.109375 0.109375q-0.59375 0.046875 -1.1875 0.046875q-0.84375 0 -1.546875 -0.171875q-0.703125 -0.171875 -1.21875 -0.53125q-0.5 -0.375 -0.796875 -0.984375q-0.28125 -0.609375 -0.28125 -1.453125q0 -0.828125 0.328125 -1.40625q0.34375 -0.59375 0.90625 -0.953125q0.578125 -0.359375 1.328125 -0.53125q0.765625 -0.171875 1.609375 -0.171875q0.265625 0 0.546875 0.03125q0.28125 0.015625 0.53125 0.0625q0.265625 0.046875 0.453125 0.09375q0.1875 0.03125 0.265625 0.0625l0 -0.5q0 -0.4375 -0.09375 -0.859375q-0.09375 -0.4375 -0.34375 -0.765625q-0.25 -0.328125 -0.671875 -0.53125q-0.421875 -0.203125 -1.109375 -0.203125q-0.875 0 -1.53125 0.125q-0.65625 0.125 -0.984375 0.25l-0.203125 -1.453125q0.34375 -0.15625 1.140625 -0.296875q0.796875 -0.140625 1.734375 -0.140625zm6.5354614 0.53125q0.609375 -0.15625 1.609375 -0.328125q1.0 -0.171875 2.3125 -0.171875q0.953125 0 1.59375 0.265625q0.640625 0.25 1.078125 0.75q0.140625 -0.09375 0.421875 -0.265625q0.28125 -0.171875 0.703125 -0.328125q0.421875 -0.171875 0.921875 -0.296875q0.515625 -0.125 1.109375 -0.125q1.140625 0 1.859375 0.34375q0.71875 0.328125 1.125 0.9375q0.421875 0.609375 0.5625 1.453125q0.140625 0.828125 0.140625 1.8125l0 5.546875l-1.765625 0l0 -5.171875q0 -0.875 -0.09375 -1.5q-0.078125 -0.625 -0.3125 -1.03125q-0.234375 -0.421875 -0.65625 -0.625q-0.40625 -0.203125 -1.046875 -0.203125q-0.890625 0 -1.46875 0.234375q-0.578125 0.234375 -0.796875 0.4375q0.15625 0.484375 0.234375 1.078125q0.078125 0.59375 0.078125 1.234375l0 5.546875l-1.765625 0l0 -5.171875q0 -0.875 -0.109375 -1.5q-0.09375 -0.625 -0.328125 -1.03125q-0.234375 -0.421875 -0.640625 -0.625q-0.40625 -0.203125 -1.03125 -0.203125q-0.265625 0 -0.578125 0.015625q-0.296875 0.015625 -0.578125 0.046875q-0.28125 0.03125 -0.515625 0.078125q-0.21875 0.03125 -0.296875 0.046875l0 8.34375l-1.765625 0l0 -9.59375z" fill-rule="nonzero"></path><path fill="#cfe2f3" d="m483.9265 299.5748l175.30707 0l0 86.33072l-175.30707 0z" fill-rule="evenodd"></path><path stroke="#000000" stroke-width="1.0" stroke-linejoin="round" stroke-linecap="butt" d="m483.9265 299.5748l175.30707 0l0 86.33072l-175.30707 0z" fill-rule="evenodd"></path><path fill="#000000" d="m536.5731 349.9414q-1.28125 0 -2.234375 -0.390625q-0.953125 -0.40625 -1.5625 -1.09375q-0.609375 -0.703125 -0.90625 -1.640625q-0.296875 -0.953125 -0.296875 -2.0625l0 -8.265625l1.84375 0l0 8.0625q0 1.96875 0.875 2.875q0.875 0.890625 2.28125 0.890625q0.703125 0 1.28125 -0.21875q0.578125 -0.21875 1.0 -0.671875q0.421875 -0.46875 0.640625 -1.171875q0.234375 -0.71875 0.234375 -1.703125l0 -8.0625l1.84375 0l0 8.265625q0 1.109375 -0.296875 2.0625q-0.296875 0.9375 -0.921875 1.640625q-0.609375 0.6875 -1.546875 1.09375q-0.9375 0.390625 -2.234375 0.390625zm14.67926 -5.203125q0 -1.734375 -0.859375 -2.65625q-0.84375 -0.9375 -2.265625 -0.9375q-0.796875 0 -1.25 0.0625q-0.453125 0.0625 -0.71875 0.125l0 6.234375q0.328125 0.265625 0.9375 0.515625q0.609375 0.25 1.328125 0.25q0.765625 0 1.296875 -0.265625q0.546875 -0.28125 0.890625 -0.765625q0.34375 -0.484375 0.484375 -1.140625q0.15625 -0.65625 0.15625 -1.421875zm1.84375 0q0 1.125 -0.296875 2.078125q-0.28125 0.9375 -0.859375 1.625q-0.5625 0.6875 -1.390625 1.078125q-0.828125 0.375 -1.890625 0.375q-0.859375 0 -1.515625 -0.234375q-0.65625 -0.234375 -0.984375 -0.4375l0 3.953125l-1.765625 0l0 -13.09375q0.625 -0.15625 1.5625 -0.328125q0.953125 -0.1875 2.1875 -0.1875q1.140625 0 2.046875 0.375q0.921875 0.359375 1.5625 1.03125q0.640625 0.65625 0.984375 1.609375q0.359375 0.953125 0.359375 2.15625zm4.5823364 3.65625q1.09375 0 1.609375 -0.28125q0.53125 -0.296875 0.53125 -0.921875q0 -0.640625 -0.515625 -1.015625q-0.515625 -0.390625 -1.6875 -0.859375q-0.578125 -0.234375 -1.109375 -0.46875q-0.515625 -0.234375 -0.890625 -0.5625q-0.375 -0.328125 -0.609375 -0.78125q-0.234375 -0.453125 -0.234375 -1.125q0 -1.3125 0.96875 -2.078125q0.96875 -0.765625 2.640625 -0.765625q0.421875 0 0.84375 0.046875q0.421875 0.046875 0.78125 0.109375q0.359375 0.0625 0.625 0.140625q0.28125 0.078125 0.4375 0.140625l-0.328125 1.515625q-0.28125 -0.15625 -0.890625 -0.3125q-0.609375 -0.15625 -1.46875 -0.15625q-0.734375 0 -1.296875 0.296875q-0.546875 0.28125 -0.546875 0.921875q0 0.3125 0.125 0.5625q0.125 0.25 0.375 0.453125q0.265625 0.1875 0.640625 0.359375q0.390625 0.171875 0.921875 0.359375q0.703125 0.265625 1.25 0.53125q0.546875 0.25 0.9375 0.59375q0.390625 0.34375 0.59375 0.828125q0.21875 0.484375 0.21875 1.1875q0 1.375 -1.015625 2.078125q-1.015625 0.703125 -2.90625 0.703125q-1.296875 0 -2.046875 -0.21875q-0.734375 -0.21875 -1.0 -0.34375l0.3125 -1.515625q0.3125 0.109375 0.96875 0.34375q0.671875 0.234375 1.765625 0.234375zm7.6800537 -8.609375l3.75 0l0 1.484375l-3.75 0l0 4.546875q0 0.75 0.109375 1.234375q0.125 0.484375 0.34375 0.765625q0.234375 0.265625 0.578125 0.390625q0.34375 0.109375 0.796875 0.109375q0.796875 0 1.28125 -0.171875q0.484375 -0.1875 0.671875 -0.265625l0.34375 1.453125q-0.265625 0.140625 -0.9375 0.328125q-0.65625 0.203125 -1.515625 0.203125q-1.0 0 -1.65625 -0.25q-0.65625 -0.25 -1.0625 -0.765625q-0.390625 -0.515625 -0.5625 -1.265625q-0.15625 -0.75 -0.15625 -1.734375l0 -8.828125l1.765625 -0.296875l0 3.0625zm9.499817 -0.21875q0.21875 0 0.515625 0.03125q0.296875 0.03125 0.578125 0.078125q0.296875 0.046875 0.53125 0.09375q0.234375 0.046875 0.34375 0.09375l-0.296875 1.53125q-0.21875 -0.078125 -0.703125 -0.171875q-0.484375 -0.109375 -1.234375 -0.109375q-0.5 0 -0.984375 0.109375q-0.484375 0.09375 -0.640625 0.140625l0 8.296875l-1.765625 0l0 -9.46875q0.625 -0.21875 1.5625 -0.421875q0.9375 -0.203125 2.09375 -0.203125zm2.998169 5.171875q0 -1.3125 0.375 -2.28125q0.390625 -0.984375 1.015625 -1.625q0.625 -0.65625 1.4375 -0.96875q0.8125 -0.328125 1.671875 -0.328125q2.0 0 3.0625 1.25q1.0625 1.234375 1.0625 3.78125q0 0.109375 0 0.296875q0 0.1875 -0.015625 0.328125l-6.765625 0q0.109375 1.546875 0.890625 2.34375q0.78125 0.796875 2.4375 0.796875q0.921875 0 1.5625 -0.15625q0.640625 -0.171875 0.953125 -0.328125l0.25 1.484375q-0.3125 0.171875 -1.125 0.359375q-0.8125 0.203125 -1.828125 0.203125q-1.296875 0 -2.234375 -0.390625q-0.9375 -0.390625 -1.546875 -1.078125q-0.609375 -0.6875 -0.90625 -1.625q-0.296875 -0.9375 -0.296875 -2.0625zm6.78125 -0.96875q0.015625 -1.203125 -0.609375 -1.96875q-0.609375 -0.765625 -1.6875 -0.765625q-0.609375 0 -1.078125 0.234375q-0.46875 0.234375 -0.796875 0.625q-0.3125 0.375 -0.5 0.875q-0.171875 0.484375 -0.234375 1.0l4.90625 0zm7.538208 4.625q0.625 0 1.109375 -0.03125q0.484375 -0.03125 0.8125 -0.109375l0 -2.9375q-0.1875 -0.109375 -0.625 -0.171875q-0.421875 -0.0625 -1.03125 -0.0625q-0.390625 0 -0.84375 0.0625q-0.4375 0.046875 -0.8125 0.234375q-0.375 0.171875 -0.625 0.484375q-0.234375 0.3125 -0.234375 0.828125q0 0.953125 0.59375 1.328125q0.609375 0.375 1.65625 0.375zm-0.140625 -8.859375q1.0625 0 1.78125 0.28125q0.734375 0.265625 1.171875 0.78125q0.453125 0.5 0.640625 1.1875q0.203125 0.6875 0.203125 1.53125l0 6.171875q-0.234375 0.03125 -0.640625 0.109375q-0.40625 0.0625 -0.921875 0.109375q-0.515625 0.0625 -1.109375 0.109375q-0.59375 0.046875 -1.1875 0.046875q-0.84375 0 -1.546875 -0.171875q-0.703125 -0.171875 -1.21875 -0.53125q-0.5 -0.375 -0.796875 -0.984375q-0.28125 -0.609375 -0.28125 -1.453125q0 -0.828125 0.328125 -1.40625q0.34375 -0.59375 0.90625 -0.953125q0.578125 -0.359375 1.328125 -0.53125q0.765625 -0.171875 1.609375 -0.171875q0.265625 0 0.546875 0.03125q0.28125 0.015625 0.53125 0.0625q0.265625 0.046875 0.453125 0.09375q0.1875 0.03125 0.265625 0.0625l0 -0.5q0 -0.4375 -0.09375 -0.859375q-0.09375 -0.4375 -0.34375 -0.765625q-0.25 -0.328125 -0.671875 -0.53125q-0.421875 -0.203125 -1.109375 -0.203125q-0.875 0 -1.53125 0.125q-0.65625 0.125 -0.984375 0.25l-0.203125 -1.453125q0.34375 -0.15625 1.140625 -0.296875q0.796875 -0.140625 1.734375 -0.140625zm6.5354614 0.53125q0.609375 -0.15625 1.609375 -0.328125q1.0 -0.171875 2.3125 -0.171875q0.953125 0 1.59375 0.265625q0.640625 0.25 1.078125 0.75q0.140625 -0.09375 0.421875 -0.265625q0.28125 -0.171875 0.703125 -0.328125q0.421875 -0.171875 0.921875 -0.296875q0.515625 -0.125 1.109375 -0.125q1.140625 0 1.859375 0.34375q0.71875 0.328125 1.125 0.9375q0.421875 0.609375 0.5625 1.453125q0.140625 0.828125 0.140625 1.8125l0 5.546875l-1.765625 0l0 -5.171875q0 -0.875 -0.09375 -1.5q-0.078125 -0.625 -0.3125 -1.03125q-0.234375 -0.421875 -0.65625 -0.625q-0.40625 -0.203125 -1.046875 -0.203125q-0.890625 0 -1.46875 0.234375q-0.578125 0.234375 -0.796875 0.4375q0.15625 0.484375 0.234375 1.078125q0.078125 0.59375 0.078125 1.234375l0 5.546875l-1.765625 0l0 -5.171875q0 -0.875 -0.109375 -1.5q-0.09375 -0.625 -0.328125 -1.03125q-0.234375 -0.421875 -0.640625 -0.625q-0.40625 -0.203125 -1.03125 -0.203125q-0.265625 0 -0.578125 0.015625q-0.296875 0.015625 -0.578125 0.046875q-0.28125 0.03125 -0.515625 0.078125q-0.21875 0.03125 -0.296875 0.046875l0 8.34375l-1.765625 0l0 -9.59375z" fill-rule="nonzero"></path><path fill="#000000" fill-opacity="0.0" d="m341.38846 164.76378l141.70078 -141.03937" fill-rule="evenodd"></path><path stroke="#000000" stroke-width="1.0" stroke-linejoin="round" stroke-linecap="butt" d="m341.38846 164.76378l137.44824 -136.80667" fill-rule="evenodd"></path><path fill="#000000" stroke="#000000" stroke-width="1.0" stroke-linecap="butt" d="m480.0019 29.127794l2.0512085 -4.3720856l-4.3816223 2.0307255z" fill-rule="evenodd"></path><path fill="#000000" fill-opacity="0.0" d="m341.38846 172.76378l141.70078 -141.03937" fill-rule="evenodd"></path><path stroke="#000000" stroke-width="1.0" stroke-linejoin="round" stroke-linecap="butt" d="m341.38846 172.76378l137.44824 -136.80667" fill-rule="evenodd"></path><path fill="#000000" stroke="#000000" stroke-width="1.0" stroke-linecap="butt" d="m480.0019 37.127792l2.0512085 -4.3720818l-4.3816223 2.0307236z" fill-rule="evenodd"></path><path fill="#000000" fill-opacity="0.0" d="m341.38846 180.76378l141.70078 -141.03937" fill-rule="evenodd"></path><path stroke="#000000" stroke-width="1.0" stroke-linejoin="round" stroke-linecap="butt" d="m341.38846 180.76378l137.44824 -136.80667" fill-rule="evenodd"></path><path fill="#000000" stroke="#000000" stroke-width="1.0" stroke-linecap="butt" d="m480.0019 45.127792l2.0512085 -4.3720818l-4.3816223 2.0307236z" fill-rule="evenodd"></path><path fill="#000000" fill-opacity="0.0" d="m341.38846 188.76378l141.70078 -141.03937" fill-rule="evenodd"></path><path stroke="#000000" stroke-width="1.0" stroke-linejoin="round" stroke-linecap="butt" d="m341.38846 188.76378l137.44824 -136.80667" fill-rule="evenodd"></path><path fill="#000000" stroke="#000000" stroke-width="1.0" stroke-linecap="butt" d="m480.0019 53.127792l2.0512085 -4.3720818l-4.3816223 2.0307236z" fill-rule="evenodd"></path><path fill="#000000" fill-opacity="0.0" d="m341.38846 196.76378l141.70078 -141.03937" fill-rule="evenodd"></path><path stroke="#000000" stroke-width="1.0" stroke-linejoin="round" stroke-linecap="butt" d="m341.38846 196.76378l137.44824 -136.80667" fill-rule="evenodd"></path><path fill="#000000" stroke="#000000" stroke-width="1.0" stroke-linecap="butt" d="m480.0019 61.127792l2.0512085 -4.3720818l-4.3816223 2.0307236z" fill-rule="evenodd"></path><path fill="#000000" fill-opacity="0.0" d="m341.38846 204.76378l141.70078 -141.03937" fill-rule="evenodd"></path><path stroke="#000000" stroke-width="1.0" stroke-linejoin="round" stroke-linecap="butt" d="m341.38846 204.76378l137.44824 -136.80667" fill-rule="evenodd"></path><path fill="#000000" stroke="#000000" stroke-width="1.0" stroke-linecap="butt" d="m480.0019 69.12779l2.0512085 -4.3720856l-4.3816223 2.0307236z" fill-rule="evenodd"></path><path fill="#000000" fill-opacity="0.0" d="m341.38846 212.76378l141.70078 -141.03937" fill-rule="evenodd"></path><path stroke="#000000" stroke-width="1.0" stroke-linejoin="round" stroke-linecap="butt" d="m341.38846 212.76378l137.44824 -136.80667" fill-rule="evenodd"></path><path fill="#000000" stroke="#000000" stroke-width="1.0" stroke-linecap="butt" d="m480.0019 77.12779l2.0512085 -4.3720856l-4.3816223 2.0307236z" fill-rule="evenodd"></path><path fill="#000000" fill-opacity="0.0" d="m341.38846 220.76378l141.70078 -141.03937" fill-rule="evenodd"></path><path stroke="#000000" stroke-width="1.0" stroke-linejoin="round" stroke-linecap="butt" d="m341.38846 220.76378l137.44824 -136.80667" fill-rule="evenodd"></path><path fill="#000000" stroke="#000000" stroke-width="1.0" stroke-linecap="butt" d="m480.0019 85.12779l2.0512085 -4.3720856l-4.3816223 2.0307236z" fill-rule="evenodd"></path><path fill="#000000" fill-opacity="0.0" d="m341.38846 228.76378l141.70078 -141.03937" fill-rule="evenodd"></path><path stroke="#000000" stroke-width="1.0" stroke-linejoin="round" stroke-linecap="butt" d="m341.38846 228.76378l137.44824 -136.80667" fill-rule="evenodd"></path><path fill="#000000" stroke="#000000" stroke-width="1.0" stroke-linecap="butt" d="m480.0019 93.12779l2.0512085 -4.3720856l-4.3816223 2.0307236z" fill-rule="evenodd"></path><path fill="#000000" fill-opacity="0.0" d="m341.38846 236.76378l141.70078 -141.03937" fill-rule="evenodd"></path><path stroke="#000000" stroke-width="1.0" stroke-linejoin="round" stroke-linecap="butt" d="m341.38846 236.76378l137.44824 -136.80667" fill-rule="evenodd"></path><path fill="#000000" stroke="#000000" stroke-width="1.0" stroke-linecap="butt" d="m480.0019 101.12779l2.0512085 -4.3720856l-4.3816223 2.0307236z" fill-rule="evenodd"></path><path fill="#000000" fill-opacity="0.0" d="m341.38846 244.76378l141.70078 -141.03937" fill-rule="evenodd"></path><path stroke="#000000" stroke-width="1.0" stroke-linejoin="round" stroke-linecap="butt" d="m341.38846 244.76378l137.44824 -136.80667" fill-rule="evenodd"></path><path fill="#000000" stroke="#000000" stroke-width="1.0" stroke-linecap="butt" d="m480.0019 109.12779l2.0512085 -4.3720856l-4.3816223 2.0307236z" fill-rule="evenodd"></path><path fill="#000000" fill-opacity="0.0" d="m340.07086 251.7559l143.02362 133.79527" fill-rule="evenodd"></path><path stroke="#000000" stroke-width="1.0" stroke-linejoin="round" stroke-linecap="butt" d="m340.07086 251.7559l138.64197 129.69637" fill-rule="evenodd"></path><path fill="#000000" stroke="#000000" stroke-width="1.0" stroke-linecap="butt" d="m477.58444 382.65848l4.442444 1.8940125l-2.1856384 -4.3064575z" fill-rule="evenodd"></path><path fill="#000000" fill-opacity="0.0" d="m340.07086 243.7559l143.02362 133.79527" fill-rule="evenodd"></path><path stroke="#000000" stroke-width="1.0" stroke-linejoin="round" stroke-linecap="butt" d="m340.07086 243.7559l138.64197 129.69637" fill-rule="evenodd"></path><path fill="#000000" stroke="#000000" stroke-width="1.0" stroke-linecap="butt" d="m477.58444 374.65848l4.442444 1.8940125l-2.1856384 -4.3064575z" fill-rule="evenodd"></path><path fill="#000000" fill-opacity="0.0" d="m340.07086 235.7559l143.02362 133.79527" fill-rule="evenodd"></path><path stroke="#000000" stroke-width="1.0" stroke-linejoin="round" stroke-linecap="butt" d="m340.07086 235.7559l138.64197 129.69637" fill-rule="evenodd"></path><path fill="#000000" stroke="#000000" stroke-width="1.0" stroke-linecap="butt" d="m477.58444 366.65848l4.442444 1.8940125l-2.1856384 -4.3064575z" fill-rule="evenodd"></path><path fill="#000000" fill-opacity="0.0" d="m340.07086 227.7559l143.02362 133.79527" fill-rule="evenodd"></path><path stroke="#000000" stroke-width="1.0" stroke-linejoin="round" stroke-linecap="butt" d="m340.07086 227.7559l138.64197 129.69637" fill-rule="evenodd"></path><path fill="#000000" stroke="#000000" stroke-width="1.0" stroke-linecap="butt" d="m477.58444 358.65848l4.442444 1.8940125l-2.1856384 -4.3064575z" fill-rule="evenodd"></path><path fill="#000000" fill-opacity="0.0" d="m340.07086 219.7559l143.02362 133.79527" fill-rule="evenodd"></path><path stroke="#000000" stroke-width="1.0" stroke-linejoin="round" stroke-linecap="butt" d="m340.07086 219.7559l138.64197 129.69637" fill-rule="evenodd"></path><path fill="#000000" stroke="#000000" stroke-width="1.0" stroke-linecap="butt" d="m477.58444 350.65848l4.442444 1.8940125l-2.1856384 -4.3064575z" fill-rule="evenodd"></path><path fill="#000000" fill-opacity="0.0" d="m340.07086 211.7559l143.02362 133.79527" fill-rule="evenodd"></path><path stroke="#000000" stroke-width="1.0" stroke-linejoin="round" stroke-linecap="butt" d="m340.07086 211.7559l138.64197 129.69637" fill-rule="evenodd"></path><path fill="#000000" stroke="#000000" stroke-width="1.0" stroke-linecap="butt" d="m477.58444 342.65848l4.442444 1.8940125l-2.1856384 -4.3064575z" fill-rule="evenodd"></path><path fill="#000000" fill-opacity="0.0" d="m340.07086 203.7559l143.02362 133.79527" fill-rule="evenodd"></path><path stroke="#000000" stroke-width="1.0" stroke-linejoin="round" stroke-linecap="butt" d="m340.07086 203.7559l138.64197 129.69637" fill-rule="evenodd"></path><path fill="#000000" stroke="#000000" stroke-width="1.0" stroke-linecap="butt" d="m477.58444 334.65848l4.442444 1.8940125l-2.1856384 -4.3064575z" fill-rule="evenodd"></path><path fill="#000000" fill-opacity="0.0" d="m340.07086 195.7559l143.02362 133.79527" fill-rule="evenodd"></path><path stroke="#000000" stroke-width="1.0" stroke-linejoin="round" stroke-linecap="butt" d="m340.07086 195.7559l138.64197 129.69637" fill-rule="evenodd"></path><path fill="#000000" stroke="#000000" stroke-width="1.0" stroke-linecap="butt" d="m477.58444 326.65848l4.442444 1.8940125l-2.1856384 -4.3064575z" fill-rule="evenodd"></path><path fill="#000000" fill-opacity="0.0" d="m340.07086 187.7559l143.02362 133.79527" fill-rule="evenodd"></path><path stroke="#000000" stroke-width="1.0" stroke-linejoin="round" stroke-linecap="butt" d="m340.07086 187.7559l138.64197 129.69637" fill-rule="evenodd"></path><path fill="#000000" stroke="#000000" stroke-width="1.0" stroke-linecap="butt" d="m477.58444 318.65848l4.442444 1.8940125l-2.1856384 -4.3064575z" fill-rule="evenodd"></path><path fill="#000000" fill-opacity="0.0" d="m340.07086 179.7559l143.02362 133.79527" fill-rule="evenodd"></path><path stroke="#000000" stroke-width="1.0" stroke-linejoin="round" stroke-linecap="butt" d="m340.07086 179.7559l138.64197 129.69637" fill-rule="evenodd"></path><path fill="#000000" stroke="#000000" stroke-width="1.0" stroke-linecap="butt" d="m477.58444 310.65848l4.442444 1.8940125l-2.1856384 -4.3064575z" fill-rule="evenodd"></path><path fill="#000000" fill-opacity="0.0" d="m340.07086 171.7559l143.02362 133.79527" fill-rule="evenodd"></path><path stroke="#000000" stroke-width="1.0" stroke-linejoin="round" stroke-linecap="butt" d="m340.07086 171.7559l138.64197 129.69637" fill-rule="evenodd"></path><path fill="#000000" stroke="#000000" stroke-width="1.0" stroke-linecap="butt" d="m477.58444 302.65848l4.442444 1.8940125l-2.1856384 -4.3064575z" fill-rule="evenodd"></path><path fill="#000000" fill-opacity="0.0" d="m42.17848 165.42258l123.244095 1.3228302" fill-rule="evenodd"></path><path stroke="#000000" stroke-width="1.0" stroke-linejoin="round" stroke-linecap="butt" d="m42.17848 165.42258l117.244446 1.2584381" fill-rule="evenodd"></path><path fill="#000000" stroke="#000000" stroke-width="1.0" stroke-linecap="butt" d="m159.4052 168.33264l4.5555573 -1.6029205l-4.520111 -1.7003479z" fill-rule="evenodd"></path><path fill="#000000" fill-opacity="0.0" d="m42.17848 173.42258l123.244095 1.3228302" fill-rule="evenodd"></path><path stroke="#000000" stroke-width="1.0" stroke-linejoin="round" stroke-linecap="butt" d="m42.17848 173.42258l117.244446 1.2584229" fill-rule="evenodd"></path><path fill="#000000" stroke="#000000" stroke-width="1.0" stroke-linecap="butt" d="m159.4052 176.33264l4.5555573 -1.6029205l-4.520111 -1.7003479z" fill-rule="evenodd"></path><path fill="#000000" fill-opacity="0.0" d="m42.17848 181.42258l123.244095 1.3228302" fill-rule="evenodd"></path><path stroke="#000000" stroke-width="1.0" stroke-linejoin="round" stroke-linecap="butt" d="m42.17848 181.42258l117.244446 1.2584229" fill-rule="evenodd"></path><path fill="#000000" stroke="#000000" stroke-width="1.0" stroke-linecap="butt" d="m159.4052 184.33264l4.5555573 -1.6029205l-4.520111 -1.7003479z" fill-rule="evenodd"></path><path fill="#000000" fill-opacity="0.0" d="m42.17848 189.42258l123.244095 1.3228302" fill-rule="evenodd"></path><path stroke="#000000" stroke-width="1.0" stroke-linejoin="round" stroke-linecap="butt" d="m42.17848 189.42258l117.244446 1.2584229" fill-rule="evenodd"></path><path fill="#000000" stroke="#000000" stroke-width="1.0" stroke-linecap="butt" d="m159.4052 192.33264l4.5555573 -1.6029205l-4.520111 -1.7003479z" fill-rule="evenodd"></path><path fill="#000000" fill-opacity="0.0" d="m42.17848 197.42258l123.244095 1.3228302" fill-rule="evenodd"></path><path stroke="#000000" stroke-width="1.0" stroke-linejoin="round" stroke-linecap="butt" d="m42.17848 197.42258l117.244446 1.2584229" fill-rule="evenodd"></path><path fill="#000000" stroke="#000000" stroke-width="1.0" stroke-linecap="butt" d="m159.4052 200.33264l4.5555573 -1.6029205l-4.520111 -1.7003479z" fill-rule="evenodd"></path><path fill="#000000" fill-opacity="0.0" d="m42.17848 205.42258l123.244095 1.3228302" fill-rule="evenodd"></path><path stroke="#000000" stroke-width="1.0" stroke-linejoin="round" stroke-linecap="butt" d="m42.17848 205.42258l117.244446 1.2584229" fill-rule="evenodd"></path><path fill="#000000" stroke="#000000" stroke-width="1.0" stroke-linecap="butt" d="m159.4052 208.33264l4.5555573 -1.6029205l-4.520111 -1.7003479z" fill-rule="evenodd"></path><path fill="#000000" fill-opacity="0.0" d="m42.17848 213.42258l123.244095 1.3228302" fill-rule="evenodd"></path><path stroke="#000000" stroke-width="1.0" stroke-linejoin="round" stroke-linecap="butt" d="m42.17848 213.42258l117.244446 1.2584229" fill-rule="evenodd"></path><path fill="#000000" stroke="#000000" stroke-width="1.0" stroke-linecap="butt" d="m159.4052 216.33264l4.5555573 -1.6029205l-4.520111 -1.7003479z" fill-rule="evenodd"></path><path fill="#000000" fill-opacity="0.0" d="m42.17848 221.42258l123.244095 1.3228302" fill-rule="evenodd"></path><path stroke="#000000" stroke-width="1.0" stroke-linejoin="round" stroke-linecap="butt" d="m42.17848 221.42258l117.244446 1.2584229" fill-rule="evenodd"></path><path fill="#000000" stroke="#000000" stroke-width="1.0" stroke-linecap="butt" d="m159.4052 224.33264l4.5555573 -1.6029205l-4.520111 -1.7003479z" fill-rule="evenodd"></path><path fill="#000000" fill-opacity="0.0" d="m42.17848 229.42258l123.244095 1.3228302" fill-rule="evenodd"></path><path stroke="#000000" stroke-width="1.0" stroke-linejoin="round" stroke-linecap="butt" d="m42.17848 229.42258l117.244446 1.2584229" fill-rule="evenodd"></path><path fill="#000000" stroke="#000000" stroke-width="1.0" stroke-linecap="butt" d="m159.4052 232.33264l4.5555573 -1.6029205l-4.520111 -1.7003479z" fill-rule="evenodd"></path><path fill="#000000" fill-opacity="0.0" d="m42.17848 237.42258l123.244095 1.3228302" fill-rule="evenodd"></path><path stroke="#000000" stroke-width="1.0" stroke-linejoin="round" stroke-linecap="butt" d="m42.17848 237.42258l117.244446 1.2584229" fill-rule="evenodd"></path><path fill="#000000" stroke="#000000" stroke-width="1.0" stroke-linecap="butt" d="m159.4052 240.33264l4.5555573 -1.6029205l-4.520111 -1.7003479z" fill-rule="evenodd"></path><path fill="#000000" fill-opacity="0.0" d="m42.17848 245.42258l123.244095 1.3228302" fill-rule="evenodd"></path><path stroke="#000000" stroke-width="1.0" stroke-linejoin="round" stroke-linecap="butt" d="m42.17848 245.42258l117.244446 1.2584229" fill-rule="evenodd"></path><path fill="#000000" stroke="#000000" stroke-width="1.0" stroke-linecap="butt" d="m159.4052 248.33264l4.5555573 -1.6029205l-4.520111 -1.7003479z" fill-rule="evenodd"></path><path fill="#000000" fill-opacity="0.0" d="m42.17848 170.03592l123.244095 1.3228455" fill-rule="evenodd"></path><path stroke="#000000" stroke-width="1.0" stroke-linejoin="round" stroke-linecap="butt" d="m42.17848 170.03592l117.244446 1.2584381" fill-rule="evenodd"></path><path fill="#000000" stroke="#000000" stroke-width="1.0" stroke-linecap="butt" d="m159.4052 172.946l4.5555573 -1.6029358l-4.520111 -1.7003326z" fill-rule="evenodd"></path><path fill="#000000" fill-opacity="0.0" d="m42.17848 178.03592l123.244095 1.3228455" fill-rule="evenodd"></path><path stroke="#000000" stroke-width="1.0" stroke-linejoin="round" stroke-linecap="butt" d="m42.17848 178.03592l117.244446 1.2584381" fill-rule="evenodd"></path><path fill="#000000" stroke="#000000" stroke-width="1.0" stroke-linecap="butt" d="m159.4052 180.946l4.5555573 -1.6029358l-4.520111 -1.7003326z" fill-rule="evenodd"></path><path fill="#000000" fill-opacity="0.0" d="m42.17848 186.03592l123.244095 1.3228455" fill-rule="evenodd"></path><path stroke="#000000" stroke-width="1.0" stroke-linejoin="round" stroke-linecap="butt" d="m42.17848 186.03592l117.244446 1.2584381" fill-rule="evenodd"></path><path fill="#000000" stroke="#000000" stroke-width="1.0" stroke-linecap="butt" d="m159.4052 188.946l4.5555573 -1.6029358l-4.520111 -1.7003326z" fill-rule="evenodd"></path><path fill="#000000" fill-opacity="0.0" d="m42.17848 194.03592l123.244095 1.3228455" fill-rule="evenodd"></path><path stroke="#000000" stroke-width="1.0" stroke-linejoin="round" stroke-linecap="butt" d="m42.17848 194.03592l117.244446 1.2584381" fill-rule="evenodd"></path><path fill="#000000" stroke="#000000" stroke-width="1.0" stroke-linecap="butt" d="m159.4052 196.946l4.5555573 -1.6029358l-4.520111 -1.7003326z" fill-rule="evenodd"></path><path fill="#000000" fill-opacity="0.0" d="m42.17848 202.03592l123.244095 1.3228455" fill-rule="evenodd"></path><path stroke="#000000" stroke-width="1.0" stroke-linejoin="round" stroke-linecap="butt" d="m42.17848 202.03592l117.244446 1.2584381" fill-rule="evenodd"></path><path fill="#000000" stroke="#000000" stroke-width="1.0" stroke-linecap="butt" d="m159.4052 204.946l4.5555573 -1.6029358l-4.520111 -1.7003326z" fill-rule="evenodd"></path><path fill="#000000" fill-opacity="0.0" d="m42.17848 210.03592l123.244095 1.3228455" fill-rule="evenodd"></path><path stroke="#000000" stroke-width="1.0" stroke-linejoin="round" stroke-linecap="butt" d="m42.17848 210.03592l117.244446 1.2584381" fill-rule="evenodd"></path><path fill="#000000" stroke="#000000" stroke-width="1.0" stroke-linecap="butt" d="m159.4052 212.946l4.5555573 -1.6029358l-4.520111 -1.7003326z" fill-rule="evenodd"></path><path fill="#000000" fill-opacity="0.0" d="m42.17848 218.03592l123.244095 1.3228455" fill-rule="evenodd"></path><path stroke="#000000" stroke-width="1.0" stroke-linejoin="round" stroke-linecap="butt" d="m42.17848 218.03592l117.244446 1.2584381" fill-rule="evenodd"></path><path fill="#000000" stroke="#000000" stroke-width="1.0" stroke-linecap="butt" d="m159.4052 220.946l4.5555573 -1.6029358l-4.520111 -1.7003326z" fill-rule="evenodd"></path><path fill="#000000" fill-opacity="0.0" d="m42.17848 226.03592l123.244095 1.3228455" fill-rule="evenodd"></path><path stroke="#000000" stroke-width="1.0" stroke-linejoin="round" stroke-linecap="butt" d="m42.17848 226.03592l117.244446 1.2584381" fill-rule="evenodd"></path><path fill="#000000" stroke="#000000" stroke-width="1.0" stroke-linecap="butt" d="m159.4052 228.946l4.5555573 -1.6029358l-4.520111 -1.7003326z" fill-rule="evenodd"></path><path fill="#000000" fill-opacity="0.0" d="m42.17848 234.03592l123.244095 1.3228455" fill-rule="evenodd"></path><path stroke="#000000" stroke-width="1.0" stroke-linejoin="round" stroke-linecap="butt" d="m42.17848 234.03592l117.244446 1.2584381" fill-rule="evenodd"></path><path fill="#000000" stroke="#000000" stroke-width="1.0" stroke-linecap="butt" d="m159.4052 236.946l4.5555573 -1.6029358l-4.520111 -1.7003326z" fill-rule="evenodd"></path><path fill="#000000" fill-opacity="0.0" d="m42.17848 242.03592l123.244095 1.3228455" fill-rule="evenodd"></path><path stroke="#000000" stroke-width="1.0" stroke-linejoin="round" stroke-linecap="butt" d="m42.17848 242.03592l117.244446 1.2584381" fill-rule="evenodd"></path><path fill="#000000" stroke="#000000" stroke-width="1.0" stroke-linecap="butt" d="m159.4052 244.946l4.5555573 -1.6029358l-4.520111 -1.7003326z" fill-rule="evenodd"></path><path fill="#000000" fill-opacity="0.0" d="m42.17848 250.03592l123.244095 1.3228455" fill-rule="evenodd"></path><path stroke="#000000" stroke-width="1.0" stroke-linejoin="round" stroke-linecap="butt" d="m42.17848 250.03592l117.244446 1.2584381" fill-rule="evenodd"></path><path fill="#000000" stroke="#000000" stroke-width="1.0" stroke-linecap="butt" d="m159.4052 252.946l4.5555573 -1.6029358l-4.520111 -1.7003326z" fill-rule="evenodd"></path><path fill="#000000" fill-opacity="0.0" d="m13.839895 101.84777l212.8819 0l0 44.28347l-212.8819 0z" fill-rule="evenodd"></path><path fill="#000000" d="m24.60552 118.314644q1.078125 -0.421875 2.109375 -1.0625q1.03125 -0.65625 1.875 -1.65625l1.265625 0l0 13.171867l-1.765625 0l0 -10.718742q-0.234375 0.21875 -0.578125 0.453125q-0.328125 0.21875 -0.71875 0.421875q-0.375 0.203125 -0.8125 0.40625q-0.421875 0.1875 -0.828125 0.3125l-0.546875 -1.328125zm9.709623 3.859375q0 -3.3125 1.15625 -5.09375q1.171875 -1.78125 3.25 -1.78125q2.0625 0 3.234375 1.78125q1.171875 1.78125 1.171875 5.09375q0 3.3125 -1.171875 5.09375q-1.171875 1.7812424 -3.234375 1.7812424q-2.078125 0 -3.25 -1.7812424q-1.15625 -1.78125 -1.15625 -5.09375zm6.953125 0q0 -1.078125 -0.125 -2.046875q-0.125 -0.96875 -0.421875 -1.6875q-0.296875 -0.734375 -0.796875 -1.15625q-0.484375 -0.421875 -1.203125 -0.421875q-0.71875 0 -1.21875 0.421875q-0.5 0.421875 -0.796875 1.15625q-0.28125 0.71875 -0.40625 1.6875q-0.125 0.96875 -0.125 2.046875q0 1.078125 0.125 2.046875q0.125 0.96875 0.40625 1.703125q0.296875 0.71875 0.796875 1.15625q0.5 0.421875 1.21875 0.421875q0.71875 0 1.203125 -0.421875q0.5 -0.4375 0.796875 -1.15625q0.296875 -0.734375 0.421875 -1.703125q0.125 -0.96875 0.125 -2.046875zm3.5690002 0q0 -3.3125 1.15625 -5.09375q1.171875 -1.78125 3.25 -1.78125q2.0625 0 3.234375 1.78125q1.171875 1.78125 1.171875 5.09375q0 3.3125 -1.171875 5.09375q-1.171875 1.7812424 -3.234375 1.7812424q-2.078125 0 -3.25 -1.7812424q-1.15625 -1.78125 -1.15625 -5.09375zm6.953125 0q0 -1.078125 -0.125 -2.046875q-0.125 -0.96875 -0.421875 -1.6875q-0.296875 -0.734375 -0.796875 -1.15625q-0.484375 -0.421875 -1.203125 -0.421875q-0.71875 0 -1.21875 0.421875q-0.5 0.421875 -0.796875 1.15625q-0.28125 0.71875 -0.40625 1.6875q-0.125 0.96875 -0.125 2.046875q0 1.078125 0.125 2.046875q0.125 0.96875 0.40625 1.703125q0.296875 0.71875 0.796875 1.15625q0.5 0.421875 1.21875 0.421875q0.71875 0 1.203125 -0.421875q0.5 -0.4375 0.796875 -1.15625q0.296875 -0.734375 0.421875 -1.703125q0.125 -0.96875 0.125 -2.046875zm8.566101 -6.578125l1.84375 0l0 13.171867l-1.84375 0l0 -13.171867zm4.8935432 3.578125q0.609375 -0.15625 1.609375 -0.328125q1.015625 -0.171875 2.328125 -0.171875q1.171875 0 1.953125 0.34375q0.78125 0.328125 1.25 0.921875q0.46875 0.59375 0.65625 1.4375q0.1875 0.828125 0.1875 1.84375l0 5.5468674l-1.765625 0l0 -5.1718674q0 -0.90625 -0.125 -1.546875q-0.125 -0.65625 -0.40625 -1.046875q-0.28125 -0.40625 -0.765625 -0.578125q-0.46875 -0.1875 -1.171875 -0.1875q-0.28125 0 -0.59375 0.015625q-0.296875 0.015625 -0.578125 0.046875q-0.28125 0.03125 -0.5 0.078125q-0.21875 0.03125 -0.3125 0.046875l0 8.343742l-1.765625 0l0 -9.593742zm17.56807 4.671875q0 -1.734375 -0.859375 -2.65625q-0.84375 -0.9375 -2.265625 -0.9375q-0.796875 0 -1.25 0.0625q-0.453125 0.0625 -0.71875 0.125l0 6.234375q0.328125 0.265625 0.9375 0.515625q0.609375 0.25 1.328125 0.25q0.765625 0 1.296875 -0.265625q0.546875 -0.28125 0.890625 -0.765625q0.34375 -0.484375 0.484375 -1.140625q0.15625 -0.65625 0.15625 -1.421875zm1.84375 0q0 1.125 -0.296875 2.078125q-0.28125 0.9375 -0.859375 1.625q-0.5625 0.6874924 -1.390625 1.0781174q-0.828125 0.375 -1.890625 0.375q-0.859375 0 -1.515625 -0.234375q-0.65625 -0.234375 -0.984375 -0.4375l0 3.953125l-1.765625 0l0 -13.093742q0.625 -0.15625 1.5625 -0.328125q0.953125 -0.1875 2.1875 -0.1875q1.140625 0 2.046875 0.375q0.921875 0.359375 1.5625 1.03125q0.640625 0.65625 0.984375 1.609375q0.359375 0.953125 0.359375 2.15625zm10.160416 4.6406174q-0.609375 0.140625 -1.609375 0.3125q-1.0 0.171875 -2.3125 0.171875q-1.140625 0 -1.921875 -0.328125q-0.765625 -0.328125 -1.25 -0.9374924q-0.46875 -0.609375 -0.6875 -1.4375q-0.203125 -0.828125 -0.203125 -1.828125l0 -5.546875l1.765625 0l0 5.15625q0 1.8125 0.5625 2.59375q0.578125 0.78125 1.921875 0.78125q0.296875 0 0.59375 -0.015625q0.3125 -0.03125 0.578125 -0.046875q0.265625 -0.03125 0.484375 -0.0625q0.21875 -0.03125 0.3125 -0.0625l0 -8.34375l1.765625 0l0 9.593742zm4.4899445 -9.593742l3.75 0l0 1.484375l-3.75 0l0 4.546875q0 0.75 0.109375 1.234375q0.125 0.484375 0.34375 0.765625q0.234375 0.265625 0.578125 0.390625q0.34375 0.109375 0.796875 0.109375q0.796875 0 1.28125 -0.171875q0.484375 -0.1875 0.671875 -0.265625l0.34375 1.4531174q-0.265625 0.140625 -0.9375 0.328125q-0.65625 0.203125 -1.515625 0.203125q-1.0 0 -1.65625 -0.25q-0.65625 -0.25 -1.0625 -0.7656174q-0.390625 -0.515625 -0.5625 -1.265625q-0.15625 -0.75 -0.15625 -1.734375l0 -8.828125l1.765625 -0.296875l0 3.0625zm15.934418 10.156242q-1.390625 0 -2.53125 -0.453125q-1.140625 -0.453125 -1.953125 -1.3281174q-0.8125 -0.875 -1.265625 -2.15625q-0.4375 -1.28125 -0.4375 -2.9375q0 -1.65625 0.5 -2.9375q0.5 -1.28125 1.34375 -2.15625q0.859375 -0.875 2.0 -1.328125q1.140625 -0.453125 2.4375 -0.453125q0.8125 0 1.46875 0.109375q0.65625 0.109375 1.140625 0.265625q0.484375 0.15625 0.78125 0.3125q0.3125 0.140625 0.421875 0.21875l-0.53125 1.53125q-0.171875 -0.125 -0.5 -0.25q-0.3125 -0.140625 -0.71875 -0.265625q-0.40625 -0.140625 -0.890625 -0.21875q-0.484375 -0.09375 -0.984375 -0.09375q-1.046875 0 -1.890625 0.359375q-0.828125 0.359375 -1.421875 1.046875q-0.578125 0.6875 -0.890625 1.671875q-0.3125 0.96875 -0.3125 2.1875q0 1.171875 0.265625 2.140625q0.28125 0.96875 0.828125 1.671875q0.5625 0.6875 1.375 1.078125q0.828125 0.375 1.9375 0.375q1.265625 0 2.09375 -0.265625q0.84375 -0.265625 1.265625 -0.484375l0.484375 1.5312424q-0.140625 0.09375 -0.484375 0.234375q-0.34375 0.140625 -0.859375 0.28125q-0.5 0.125 -1.1875 0.21875q-0.6875 0.09375 -1.484375 0.09375zm14.504372 -5.2187424q0 1.171875 -0.34375 2.125q-0.328125 0.953125 -0.953125 1.640625q-0.6093674 0.6718674 -1.4687424 1.0468674q-0.859375 0.375 -1.859375 0.375q-1.015625 0 -1.875 -0.375q-0.84375 -0.375 -1.46875 -1.0468674q-0.609375 -0.6875 -0.953125 -1.640625q-0.34375 -0.953125 -0.34375 -2.125q0 -1.15625 0.34375 -2.109375q0.34375 -0.96875 0.953125 -1.65625q0.625 -0.6875 1.46875 -1.046875q0.859375 -0.375 1.875 -0.375q1.0 0 1.859375 0.375q0.859375 0.359375 1.4687424 1.046875q0.625 0.6875 0.953125 1.65625q0.34375 0.953125 0.34375 2.109375zm-1.8437424 0q0 -1.671875 -0.75 -2.640625q-0.75 -0.984375 -2.03125 -0.984375q-1.296875 0 -2.046875 0.984375q-0.75 0.96875 -0.75 2.640625q0 1.671875 0.75 2.65625q0.75 0.96875 2.046875 0.96875q1.28125 0 2.03125 -0.96875q0.75 -0.984375 0.75 -2.65625zm4.1321793 -4.65625q0.609375 -0.15625 1.609375 -0.328125q1.015625 -0.171875 2.328125 -0.171875q1.171875 0 1.953125 0.34375q0.78125 0.328125 1.25 0.921875q0.46875 0.59375 0.65625 1.4375q0.1875 0.828125 0.1875 1.84375l0 5.5468674l-1.765625 0l0 -5.1718674q0 -0.90625 -0.125 -1.546875q-0.125 -0.65625 -0.40625 -1.046875q-0.28125 -0.40625 -0.765625 -0.578125q-0.46875 -0.1875 -1.171875 -0.1875q-0.28125 0 -0.59375 0.015625q-0.296875 0.015625 -0.578125 0.046875q-0.28125 0.03125 -0.5 0.078125q-0.21875 0.03125 -0.3125 0.046875l0 8.343742l-1.765625 0l0 -9.593742zm10.708694 0q0.609375 -0.15625 1.609375 -0.328125q1.015625 -0.171875 2.328125 -0.171875q1.171875 0 1.953125 0.34375q0.78125 0.328125 1.25 0.921875q0.46875 0.59375 0.65625 1.4375q0.1875 0.828125 0.1875 1.84375l0 5.5468674l-1.765625 0l0 -5.1718674q0 -0.90625 -0.125 -1.546875q-0.125 -0.65625 -0.40625 -1.046875q-0.28125 -0.40625 -0.765625 -0.578125q-0.46875 -0.1875 -1.171875 -0.1875q-0.28125 0 -0.59375 0.015625q-0.296875 0.015625 -0.578125 0.046875q-0.28125 0.03125 -0.5 0.078125q-0.21875 0.03125 -0.3125 0.046875l0 8.343742l-1.765625 0l0 -9.593742zm10.161819 4.671875q0 -1.3125 0.375 -2.28125q0.390625 -0.984375 1.015625 -1.625q0.625 -0.65625 1.4375 -0.96875q0.8125 -0.328125 1.671875 -0.328125q2.0 0 3.0625 1.25q1.0625 1.234375 1.0625 3.78125q0 0.109375 0 0.296875q0 0.1875 -0.015625 0.328125l-6.765625 0q0.109375 1.546875 0.890625 2.34375q0.78125 0.796875 2.4375 0.796875q0.921875 0 1.5625 -0.15625q0.640625 -0.171875 0.953125 -0.328125l0.25 1.4843674q-0.3125 0.171875 -1.125 0.359375q-0.8125 0.203125 -1.828125 0.203125q-1.296875 0 -2.234375 -0.390625q-0.9375 -0.390625 -1.546875 -1.0781174q-0.609375 -0.6875 -0.90625 -1.625q-0.296875 -0.9375 -0.296875 -2.0625zm6.78125 -0.96875q0.015625 -1.203125 -0.609375 -1.96875q-0.609375 -0.765625 -1.6875 -0.765625q-0.609375 0 -1.078125 0.234375q-0.46875 0.234375 -0.796875 0.625q-0.3125 0.375 -0.5 0.875q-0.171875 0.484375 -0.234375 1.0l4.90625 0zm8.491348 6.1249924q-1.203125 0 -2.109375 -0.375q-0.890625 -0.390625 -1.515625 -1.0781174q-0.609375 -0.6875 -0.921875 -1.625q-0.296875 -0.9375 -0.296875 -2.078125q0 -1.140625 0.328125 -2.09375q0.34375 -0.953125 0.9375 -1.640625q0.609375 -0.6875 1.484375 -1.078125q0.890625 -0.390625 1.984375 -0.390625q0.65625 0 1.3125 0.109375q0.671875 0.109375 1.28125 0.359375l-0.390625 1.5q-0.40625 -0.1875 -0.9375 -0.296875q-0.515625 -0.109375 -1.09375 -0.109375q-1.484375 0 -2.28125 0.9375q-0.78125 0.921875 -0.78125 2.703125q0 0.796875 0.171875 1.46875q0.1875 0.65625 0.578125 1.140625q0.390625 0.46875 1.0 0.734375q0.609375 0.25 1.484375 0.25q0.703125 0 1.265625 -0.125q0.578125 -0.140625 0.890625 -0.296875l0.25 1.4843674q-0.15625 0.09375 -0.4375 0.1875q-0.28125 0.078125 -0.640625 0.140625q-0.359375 0.078125 -0.78125 0.125q-0.40625 0.046875 -0.78125 0.046875zm6.0345306 -10.109367l3.75 0l0 1.484375l-3.75 0l0 4.546875q0 0.75 0.109375 1.234375q0.125 0.484375 0.34375 0.765625q0.234375 0.265625 0.578125 0.390625q0.34375 0.109375 0.796875 0.109375q0.796875 0 1.28125 -0.171875q0.484375 -0.1875 0.671875 -0.265625l0.34375 1.4531174q-0.265625 0.140625 -0.9375 0.328125q-0.65625 0.203125 -1.515625 0.203125q-1.0 0 -1.65625 -0.25q-0.65625 -0.25 -1.0625 -0.7656174q-0.390625 -0.515625 -0.5625 -1.265625q-0.15625 -0.75 -0.15625 -1.734375l0 -8.828125l1.765625 -0.296875l0 3.0625zm7.609192 9.874992l-1.765625 0l0 -9.874992l1.765625 0l0 9.874992zm-0.890625 -11.671867q-0.46875 0 -0.8125 -0.3125q-0.328125 -0.3125 -0.328125 -0.84375q0 -0.53125 0.328125 -0.84375q0.34375 -0.3125 0.8125 -0.3125q0.484375 0 0.8125 0.3125q0.328125 0.3125 0.328125 0.84375q0 0.53125 -0.328125 0.84375q-0.328125 0.3125 -0.8125 0.3125zm12.563782 6.734375q0 1.171875 -0.34375 2.125q-0.328125 0.953125 -0.953125 1.640625q-0.609375 0.6718674 -1.46875 1.0468674q-0.859375 0.375 -1.859375 0.375q-1.015625 0 -1.875 -0.375q-0.84375 -0.375 -1.46875 -1.0468674q-0.609375 -0.6875 -0.953125 -1.640625q-0.34375 -0.953125 -0.34375 -2.125q0 -1.15625 0.34375 -2.109375q0.34375 -0.96875 0.953125 -1.65625q0.625 -0.6875 1.46875 -1.046875q0.859375 -0.375 1.875 -0.375q1.0 0 1.859375 0.375q0.859375 0.359375 1.46875 1.046875q0.625 0.6875 0.953125 1.65625q0.34375 0.953125 0.34375 2.109375zm-1.84375 0q0 -1.671875 -0.75 -2.640625q-0.75 -0.984375 -2.03125 -0.984375q-1.296875 0 -2.046875 0.984375q-0.75 0.96875 -0.75 2.640625q0 1.671875 0.75 2.65625q0.75 0.96875 2.046875 0.96875q1.28125 0 2.03125 -0.96875q0.75 -0.984375 0.75 -2.65625zm4.132187 -4.65625q0.609375 -0.15625 1.609375 -0.328125q1.015625 -0.171875 2.328125 -0.171875q1.171875 0 1.953125 0.34375q0.78125 0.328125 1.25 0.921875q0.46875 0.59375 0.65625 1.4375q0.1875 0.828125 0.1875 1.84375l0 5.5468674l-1.765625 0l0 -5.1718674q0 -0.90625 -0.125 -1.546875q-0.125 -0.65625 -0.40625 -1.046875q-0.28125 -0.40625 -0.765625 -0.578125q-0.46875 -0.1875 -1.171875 -0.1875q-0.28125 0 -0.59375 0.015625q-0.296875 0.015625 -0.578125 0.046875q-0.28125 0.03125 -0.5 0.078125q-0.21875 0.03125 -0.3125 0.046875l0 8.343742l-1.765625 0l0 -9.593742zm13.005569 8.328125q1.09375 0 1.609375 -0.28125q0.53125 -0.296875 0.53125 -0.921875q0 -0.640625 -0.515625 -1.015625q-0.515625 -0.390625 -1.6875 -0.859375q-0.578125 -0.234375 -1.109375 -0.46875q-0.515625 -0.234375 -0.890625 -0.5625q-0.375 -0.328125 -0.609375 -0.78125q-0.234375 -0.453125 -0.234375 -1.125q0 -1.3125 0.96875 -2.078125q0.96875 -0.765625 2.640625 -0.765625q0.421875 0 0.84375 0.046875q0.421875 0.046875 0.78125 0.109375q0.359375 0.0625 0.625 0.140625q0.28125 0.078125 0.4375 0.140625l-0.328125 1.515625q-0.28125 -0.15625 -0.890625 -0.3125q-0.609375 -0.15625 -1.46875 -0.15625q-0.734375 0 -1.296875 0.296875q-0.546875 0.28125 -0.546875 0.921875q0 0.3125 0.125 0.5625q0.125 0.25 0.375 0.453125q0.265625 0.1875 0.640625 0.359375q0.390625 0.171875 0.921875 0.359375q0.703125 0.265625 1.25 0.53125q0.546875 0.25 0.9375 0.59375q0.390625 0.34375 0.59375 0.828125q0.21875 0.484375 0.21875 1.1875q0 1.375 -1.015625 2.0781174q-1.015625 0.703125 -2.90625 0.703125q-1.296875 0 -2.046875 -0.21875q-0.734375 -0.21875 -1.0 -0.34375l0.3125 -1.5156174q0.3125 0.109375 0.96875 0.34375q0.671875 0.234375 1.765625 0.234375z" fill-rule="nonzero"></path><path fill="#000000" fill-opacity="0.0" d="m100.17585 142.35432l1.9842529 17.795288" fill-rule="evenodd"></path><path stroke="#000000" stroke-width="1.0" stroke-linejoin="round" stroke-linecap="butt" d="m100.17585 142.35432l1.3193512 11.832245" fill-rule="evenodd"></path><path fill="#000000" stroke="#000000" stroke-width="1.0" stroke-linecap="butt" d="m99.85364 154.3696l2.1444626 4.3271027l1.1386566 -4.6931763z" fill-rule="evenodd"></path><path fill="#000000" fill-opacity="0.0" d="m483.9265 175.94226l212.8819 0l0 58.11023l-212.8819 0z" fill-rule="evenodd"></path><path fill="#000000" d="m496.70776 194.76851q2.875 0.109375 4.203125 1.25q1.34375 1.140625 1.34375 3.09375q0 0.875 -0.296875 1.625q-0.296875 0.734375 -0.890625 1.265625q-0.59375 0.53125 -1.515625 0.84375q-0.90625 0.296875 -2.15625 0.296875q-0.5 0 -1.015625 -0.078125q-0.515625 -0.0625 -0.953125 -0.1875q-0.421875 -0.109375 -0.765625 -0.21875q-0.34375 -0.125 -0.5 -0.203125l0.34375 -1.53125q0.328125 0.15625 1.046875 0.40625q0.734375 0.234375 1.796875 0.234375q0.859375 0 1.4375 -0.1875q0.578125 -0.1875 0.9375 -0.5q0.359375 -0.328125 0.515625 -0.75q0.171875 -0.4375 0.171875 -0.90625q0 -0.734375 -0.25 -1.28125q-0.25 -0.5625 -0.875 -0.9375q-0.625 -0.390625 -1.671875 -0.59375q-1.046875 -0.203125 -2.640625 -0.203125q0.125 -0.921875 0.1875 -1.734375q0.0625 -0.828125 0.109375 -1.59375q0.0625 -0.78125 0.09375 -1.546875q0.046875 -0.78125 0.09375 -1.640625l6.34375 0l0 1.5l-4.8125 0q-0.015625 0.296875 -0.0625 0.78125q-0.03125 0.484375 -0.078125 1.015625q-0.03125 0.515625 -0.078125 1.015625q-0.03125 0.484375 -0.0625 0.765625zm7.6940002 1.5q0 -3.3125 1.15625 -5.09375q1.171875 -1.78125 3.25 -1.78125q2.0625 0 3.2343445 1.78125q1.171875 1.78125 1.171875 5.09375q0 3.3125 -1.171875 5.09375q-1.1718445 1.78125 -3.2343445 1.78125q-2.078125 0 -3.25 -1.78125q-1.15625 -1.78125 -1.15625 -5.09375zm6.953125 0q0 -1.078125 -0.125 -2.046875q-0.125 -0.96875 -0.421875 -1.6875q-0.296875 -0.734375 -0.796875 -1.15625q-0.484375 -0.421875 -1.203125 -0.421875q-0.71875 0 -1.21875 0.421875q-0.5 0.421875 -0.796875 1.15625q-0.28125 0.71875 -0.40625 1.6875q-0.125 0.96875 -0.125 2.046875q0 1.078125 0.125 2.046875q0.125 0.96875 0.40625 1.703125q0.296875 0.71875 0.796875 1.15625q0.5 0.421875 1.21875 0.421875q0.71875 0 1.203125 -0.421875q0.5 -0.4375 0.796875 -1.15625q0.296875 -0.734375 0.421875 -1.703125q0.125 -0.96875 0.125 -2.046875zm14.222321 6.875q-1.390625 0 -2.53125 -0.453125q-1.140625 -0.453125 -1.953125 -1.328125q-0.8125 -0.875 -1.265625 -2.15625q-0.4375 -1.28125 -0.4375 -2.9375q0 -1.65625 0.5 -2.9375q0.5 -1.28125 1.34375 -2.15625q0.859375 -0.875 2.0 -1.328125q1.140625 -0.453125 2.4375 -0.453125q0.8125 0 1.46875 0.109375q0.65625 0.109375 1.140625 0.265625q0.484375 0.15625 0.78125 0.3125q0.3125 0.140625 0.421875 0.21875l-0.53125 1.53125q-0.171875 -0.125 -0.5 -0.25q-0.3125 -0.140625 -0.71875 -0.265625q-0.40625 -0.140625 -0.890625 -0.21875q-0.484375 -0.09375 -0.984375 -0.09375q-1.046875 0 -1.890625 0.359375q-0.828125 0.359375 -1.421875 1.046875q-0.578125 0.6875 -0.890625 1.671875q-0.3125 0.96875 -0.3125 2.1875q0 1.171875 0.265625 2.140625q0.28125 0.96875 0.828125 1.671875q0.5625 0.6875 1.375 1.078125q0.828125 0.375 1.9375 0.375q1.265625 0 2.09375 -0.265625q0.84375 -0.265625 1.265625 -0.484375l0.484375 1.53125q-0.140625 0.09375 -0.484375 0.234375q-0.34375 0.140625 -0.859375 0.28125q-0.5 0.125 -1.1875 0.21875q-0.6875 0.09375 -1.484375 0.09375zm14.504395 -5.21875q0 1.171875 -0.34375 2.125q-0.328125 0.953125 -0.953125 1.640625q-0.609375 0.671875 -1.46875 1.046875q-0.859375 0.375 -1.859375 0.375q-1.015625 0 -1.875 -0.375q-0.84375 -0.375 -1.46875 -1.046875q-0.609375 -0.6875 -0.953125 -1.640625q-0.34375 -0.953125 -0.34375 -2.125q0 -1.15625 0.34375 -2.109375q0.34375 -0.96875 0.953125 -1.65625q0.625 -0.6875 1.46875 -1.046875q0.859375 -0.375 1.875 -0.375q1.0 0 1.859375 0.375q0.859375 0.359375 1.46875 1.046875q0.625 0.6875 0.953125 1.65625q0.34375 0.953125 0.34375 2.109375zm-1.84375 0q0 -1.671875 -0.75 -2.640625q-0.75 -0.984375 -2.03125 -0.984375q-1.296875 0 -2.046875 0.984375q-0.75 0.96875 -0.75 2.640625q0 1.671875 0.75 2.65625q0.75 0.96875 2.046875 0.96875q1.28125 0 2.03125 -0.96875q0.75 -0.984375 0.75 -2.65625zm4.132202 -4.65625q0.609375 -0.15625 1.609375 -0.328125q1.015625 -0.171875 2.328125 -0.171875q1.171875 0 1.953125 0.34375q0.78125 0.328125 1.25 0.921875q0.46875 0.59375 0.65625 1.4375q0.1875 0.828125 0.1875 1.84375l0 5.546875l-1.765625 0l0 -5.171875q0 -0.90625 -0.125 -1.546875q-0.125 -0.65625 -0.40625 -1.046875q-0.28125 -0.40625 -0.765625 -0.578125q-0.46875 -0.1875 -1.171875 -0.1875q-0.28125 0 -0.59375 0.015625q-0.296875 0.015625 -0.578125 0.046875q-0.28125 0.03125 -0.5 0.078125q-0.21875 0.03125 -0.3125 0.046875l0 8.34375l-1.765625 0l0 -9.59375zm10.708679 0q0.609375 -0.15625 1.609375 -0.328125q1.015625 -0.171875 2.328125 -0.171875q1.171875 0 1.953125 0.34375q0.78125 0.328125 1.25 0.921875q0.46875 0.59375 0.65625 1.4375q0.1875 0.828125 0.1875 1.84375l0 5.546875l-1.765625 0l0 -5.171875q0 -0.90625 -0.125 -1.546875q-0.125 -0.65625 -0.40625 -1.046875q-0.28125 -0.40625 -0.765625 -0.578125q-0.46875 -0.1875 -1.171875 -0.1875q-0.28125 0 -0.59375 0.015625q-0.296875 0.015625 -0.578125 0.046875q-0.28125 0.03125 -0.5 0.078125q-0.21875 0.03125 -0.3125 0.046875l0 8.34375l-1.765625 0l0 -9.59375zm10.161804 4.671875q0 -1.3125 0.375 -2.28125q0.390625 -0.984375 1.015625 -1.625q0.625 -0.65625 1.4375 -0.96875q0.8125 -0.328125 1.671875 -0.328125q2.0 0 3.0625 1.25q1.0625 1.234375 1.0625 3.78125q0 0.109375 0 0.296875q0 0.1875 -0.015625 0.328125l-6.765625 0q0.109375 1.546875 0.890625 2.34375q0.78125 0.796875 2.4375 0.796875q0.921875 0 1.5625 -0.15625q0.640625 -0.171875 0.953125 -0.328125l0.25 1.484375q-0.3125 0.171875 -1.125 0.359375q-0.8125 0.203125 -1.828125 0.203125q-1.296875 0 -2.234375 -0.390625q-0.9375 -0.390625 -1.546875 -1.078125q-0.609375 -0.6875 -0.90625 -1.625q-0.296875 -0.9375 -0.296875 -2.0625zm6.78125 -0.96875q0.015625 -1.203125 -0.609375 -1.96875q-0.609375 -0.765625 -1.6875 -0.765625q-0.609375 0 -1.078125 0.234375q-0.46875 0.234375 -0.796875 0.625q-0.3125 0.375 -0.5 0.875q-0.171875 0.484375 -0.234375 1.0l4.90625 0zm8.491394 6.125q-1.203125 0 -2.109375 -0.375q-0.890625 -0.390625 -1.515625 -1.078125q-0.609375 -0.6875 -0.921875 -1.625q-0.296875 -0.9375 -0.296875 -2.078125q0 -1.140625 0.328125 -2.09375q0.34375 -0.953125 0.9375 -1.640625q0.609375 -0.6875 1.484375 -1.078125q0.890625 -0.390625 1.984375 -0.390625q0.65625 0 1.3125 0.109375q0.671875 0.109375 1.28125 0.359375l-0.390625 1.5q-0.40625 -0.1875 -0.9375 -0.296875q-0.515625 -0.109375 -1.09375 -0.109375q-1.484375 0 -2.28125 0.9375q-0.78125 0.921875 -0.78125 2.703125q0 0.796875 0.171875 1.46875q0.1875 0.65625 0.578125 1.140625q0.390625 0.46875 1.0 0.734375q0.609375 0.25 1.484375 0.25q0.703125 0 1.265625 -0.125q0.578125 -0.140625 0.890625 -0.296875l0.25 1.484375q-0.15625 0.09375 -0.4375 0.1875q-0.28125 0.078125 -0.640625 0.140625q-0.359375 0.078125 -0.78125 0.125q-0.40625 0.046875 -0.78125 0.046875zm6.034485 -10.109375l3.75 0l0 1.484375l-3.75 0l0 4.546875q0 0.75 0.109375 1.234375q0.125 0.484375 0.34375 0.765625q0.234375 0.265625 0.578125 0.390625q0.34375 0.109375 0.796875 0.109375q0.796875 0 1.28125 -0.171875q0.484375 -0.1875 0.671875 -0.265625l0.34375 1.453125q-0.265625 0.140625 -0.9375 0.328125q-0.65625 0.203125 -1.515625 0.203125q-1.0 0 -1.65625 -0.25q-0.65625 -0.25 -1.0625 -0.765625q-0.390625 -0.515625 -0.5625 -1.265625q-0.15625 -0.75 -0.15625 -1.734375l0 -8.828125l1.765625 -0.296875l0 3.0625zm7.609192 9.875l-1.765625 0l0 -9.875l1.765625 0l0 9.875zm-0.890625 -11.671875q-0.46875 0 -0.8125 -0.3125q-0.328125 -0.3125 -0.328125 -0.84375q0 -0.53125 0.328125 -0.84375q0.34375 -0.3125 0.8125 -0.3125q0.484375 0 0.8125 0.3125q0.328125 0.3125 0.328125 0.84375q0 0.53125 -0.328125 0.84375q-0.328125 0.3125 -0.8125 0.3125zm12.563782 6.734375q0 1.171875 -0.34375 2.125q-0.328125 0.953125 -0.953125 1.640625q-0.609375 0.671875 -1.46875 1.046875q-0.859375 0.375 -1.859375 0.375q-1.015625 0 -1.875 -0.375q-0.84375 -0.375 -1.46875 -1.046875q-0.609375 -0.6875 -0.953125 -1.640625q-0.34375 -0.953125 -0.34375 -2.125q0 -1.15625 0.34375 -2.109375q0.34375 -0.96875 0.953125 -1.65625q0.625 -0.6875 1.46875 -1.046875q0.859375 -0.375 1.875 -0.375q1.0 0 1.859375 0.375q0.859375 0.359375 1.46875 1.046875q0.625 0.6875 0.953125 1.65625q0.34375 0.953125 0.34375 2.109375zm-1.84375 0q0 -1.671875 -0.75 -2.640625q-0.75 -0.984375 -2.03125 -0.984375q-1.296875 0 -2.046875 0.984375q-0.75 0.96875 -0.75 2.640625q0 1.671875 0.75 2.65625q0.75 0.96875 2.046875 0.96875q1.28125 0 2.03125 -0.96875q0.75 -0.984375 0.75 -2.65625zm4.132202 -4.65625q0.609375 -0.15625 1.609375 -0.328125q1.015625 -0.171875 2.328125 -0.171875q1.171875 0 1.953125 0.34375q0.78125 0.328125 1.25 0.921875q0.46875 0.59375 0.65625 1.4375q0.1875 0.828125 0.1875 1.84375l0 5.546875l-1.765625 0l0 -5.171875q0 -0.90625 -0.125 -1.546875q-0.125 -0.65625 -0.40625 -1.046875q-0.28125 -0.40625 -0.765625 -0.578125q-0.46875 -0.1875 -1.171875 -0.1875q-0.28125 0 -0.59375 0.015625q-0.296875 0.015625 -0.578125 0.046875q-0.28125 0.03125 -0.5 0.078125q-0.21875 0.03125 -0.3125 0.046875l0 8.34375l-1.765625 0l0 -9.59375zm13.005554 8.328125q1.09375 0 1.609375 -0.28125q0.53125 -0.296875 0.53125 -0.921875q0 -0.640625 -0.515625 -1.015625q-0.515625 -0.390625 -1.6875 -0.859375q-0.578125 -0.234375 -1.109375 -0.46875q-0.515625 -0.234375 -0.890625 -0.5625q-0.375 -0.328125 -0.609375 -0.78125q-0.234375 -0.453125 -0.234375 -1.125q0 -1.3125 0.96875 -2.078125q0.96875 -0.765625 2.640625 -0.765625q0.421875 0 0.84375 0.046875q0.421875 0.046875 0.78125 0.109375q0.359375 0.0625 0.625 0.140625q0.28125 0.078125 0.4375 0.140625l-0.328125 1.515625q-0.28125 -0.15625 -0.890625 -0.3125q-0.609375 -0.15625 -1.46875 -0.15625q-0.734375 0 -1.296875 0.296875q-0.546875 0.28125 -0.546875 0.921875q0 0.3125 0.125 0.5625q0.125 0.25 0.375 0.453125q0.265625 0.1875 0.640625 0.359375q0.390625 0.171875 0.921875 0.359375q0.703125 0.265625 1.25 0.53125q0.546875 0.25 0.9375 0.59375q0.390625 0.34375 0.59375 0.828125q0.21875 0.484375 0.21875 1.1875q0 1.375 -1.015625 2.078125q-1.015625 0.703125 -2.90625 0.703125q-1.296875 0 -2.046875 -0.21875q-0.734375 -0.21875 -1.0 -0.34375l0.3125 -1.515625q0.3125 0.109375 0.96875 0.34375q0.671875 0.234375 1.765625 0.234375zm11.989685 -8.609375l3.75 0l0 1.484375l-3.75 0l0 4.546875q0 0.75 0.109375 1.234375q0.125 0.484375 0.34375 0.765625q0.234375 0.265625 0.578125 0.390625q0.34375 0.109375 0.796875 0.109375q0.796875 0 1.28125 -0.171875q0.484375 -0.1875 0.671875 -0.265625l0.34375 1.453125q-0.265625 0.140625 -0.9375 0.328125q-0.65625 0.203125 -1.515625 0.203125q-1.0 0 -1.65625 -0.25q-0.65625 -0.25 -1.0625 -0.765625q-0.390625 -0.515625 -0.5625 -1.265625q-0.15625 -0.75 -0.15625 -1.734375l0 -8.828125l1.765625 -0.296875l0 3.0625zm14.562317 4.9375q0 1.171875 -0.34375 2.125q-0.328125 0.953125 -0.953125 1.640625q-0.609375 0.671875 -1.46875 1.046875q-0.859375 0.375 -1.859375 0.375q-1.015625 0 -1.875 -0.375q-0.84375 -0.375 -1.46875 -1.046875q-0.609375 -0.6875 -0.953125 -1.640625q-0.34375 -0.953125 -0.34375 -2.125q0 -1.15625 0.34375 -2.109375q0.34375 -0.96875 0.953125 -1.65625q0.625 -0.6875 1.46875 -1.046875q0.859375 -0.375 1.875 -0.375q1.0 0 1.859375 0.375q0.859375 0.359375 1.46875 1.046875q0.625 0.6875 0.953125 1.65625q0.34375 0.953125 0.34375 2.109375zm-1.84375 0q0 -1.671875 -0.75 -2.640625q-0.75 -0.984375 -2.03125 -0.984375q-1.296875 0 -2.046875 0.984375q-0.75 0.96875 -0.75 2.640625q0 1.671875 0.75 2.65625q0.75 0.96875 2.046875 0.96875q1.28125 0 2.03125 -0.96875q0.75 -0.984375 0.75 -2.65625z" fill-rule="nonzero"></path><path fill="#000000" d="m493.89526 219.94038q0 -1.3125 0.375 -2.28125q0.390625 -0.984375 1.015625 -1.625q0.625 -0.65625 1.4375 -0.96875q0.8125 -0.328125 1.671875 -0.328125q2.0 0 3.0625 1.25q1.0625 1.234375 1.0625 3.78125q0 0.109375 0 0.296875q0 0.1875 -0.015625 0.328125l-6.765625 0q0.109375 1.546875 0.890625 2.34375q0.78125 0.796875 2.4375 0.796875q0.921875 0 1.5625 -0.15625q0.640625 -0.171875 0.953125 -0.328125l0.25 1.484375q-0.3125 0.171875 -1.125 0.359375q-0.8125 0.203125 -1.828125 0.203125q-1.296875 0 -2.234375 -0.390625q-0.9375 -0.390625 -1.546875 -1.078125q-0.609375 -0.6875 -0.90625 -1.625q-0.296875 -0.9375 -0.296875 -2.0625zm6.78125 -0.96875q0.015625 -1.203125 -0.609375 -1.96875q-0.609375 -0.765625 -1.6875 -0.765625q-0.609375 0 -1.078125 0.234375q-0.46875 0.234375 -0.796875 0.625q-0.3125 0.375 -0.5 0.875q-0.171875 0.484375 -0.234375 1.0l4.90625 0zm7.538208 4.625q0.625 0 1.109375 -0.03125q0.484375 -0.03125 0.8125 -0.109375l0 -2.9375q-0.1875 -0.109375 -0.625 -0.171875q-0.421875 -0.0625 -1.03125 -0.0625q-0.390625 0 -0.84375 0.0625q-0.4375 0.046875 -0.8125 0.234375q-0.375 0.171875 -0.625 0.484375q-0.234375 0.3125 -0.234375 0.828125q0 0.953125 0.59375 1.328125q0.609375 0.375 1.65625 0.375zm-0.140625 -8.859375q1.0625 0 1.78125 0.28125q0.734375 0.265625 1.171875 0.78125q0.453125 0.5 0.640625 1.1875q0.203125 0.6875 0.203125 1.53125l0 6.171875q-0.234375 0.03125 -0.640625 0.109375q-0.40625 0.0625 -0.921875 0.109375q-0.515625 0.0625 -1.109375 0.109375q-0.59375 0.046875 -1.1875 0.046875q-0.84375 0 -1.546875 -0.171875q-0.703125 -0.171875 -1.21875 -0.53125q-0.5 -0.375 -0.796875 -0.984375q-0.28125 -0.609375 -0.28125 -1.453125q0 -0.828125 0.328125 -1.40625q0.34375 -0.59375 0.90625 -0.953125q0.578125 -0.359375 1.328125 -0.53125q0.765625 -0.171875 1.609375 -0.171875q0.265625 0 0.546875 0.03125q0.28125 0.015625 0.53125 0.0625q0.265625 0.046875 0.453125 0.09375q0.1875 0.03125 0.265625 0.0625l0 -0.5q0 -0.4375 -0.09375 -0.859375q-0.09375 -0.4375 -0.34375 -0.765625q-0.25 -0.328125 -0.671875 -0.53125q-0.421875 -0.203125 -1.109375 -0.203125q-0.875 0 -1.53125 0.125q-0.65625 0.125 -0.984375 0.25l-0.203125 -1.453125q0.34375 -0.15625 1.140625 -0.296875q0.796875 -0.140625 1.734375 -0.140625zm10.832336 10.359375q-1.203125 0 -2.109375 -0.375q-0.890625 -0.390625 -1.515625 -1.078125q-0.609375 -0.6875 -0.921875 -1.625q-0.296875 -0.9375 -0.296875 -2.078125q0 -1.140625 0.328125 -2.09375q0.34375 -0.953125 0.9375 -1.640625q0.609375 -0.6875 1.484375 -1.078125q0.890625 -0.390625 1.984375 -0.390625q0.65625 0 1.3125 0.109375q0.671875 0.109375 1.28125 0.359375l-0.390625 1.5q-0.40625 -0.1875 -0.9375 -0.296875q-0.515625 -0.109375 -1.09375 -0.109375q-1.484375 0 -2.28125 0.9375q-0.78125 0.921875 -0.78125 2.703125q0 0.796875 0.171875 1.46875q0.1875 0.65625 0.578125 1.140625q0.390625 0.46875 1.0 0.734375q0.609375 0.25 1.484375 0.25q0.703125 0 1.265625 -0.125q0.578125 -0.140625 0.890625 -0.296875l0.25 1.484375q-0.15625 0.09375 -0.4375 0.1875q-0.28125 0.078125 -0.640625 0.140625q-0.359375 0.078125 -0.78125 0.125q-0.40625 0.046875 -0.78125 0.046875zm4.378296 -0.234375l0 -14.4375l1.765625 -0.3125l0 5.0625q0.5 -0.1875 1.0625 -0.296875q0.5625 -0.109375 1.109375 -0.109375q1.171875 0 1.953125 0.34375q0.78125 0.328125 1.25 0.921875q0.46875 0.59375 0.65625 1.4375q0.1875 0.828125 0.1875 1.84375l0 5.546875l-1.765625 0l0 -5.171875q0 -0.90625 -0.125 -1.546875q-0.125 -0.65625 -0.40625 -1.046875q-0.28125 -0.40625 -0.765625 -0.578125q-0.46875 -0.1875 -1.171875 -0.1875q-0.28125 0 -0.59375 0.046875q-0.296875 0.03125 -0.578125 0.078125q-0.28125 0.046875 -0.5 0.109375q-0.21875 0.046875 -0.3125 0.09375l0 8.203125l-1.765625 0zm22.83728 -0.28125q-0.609375 0.140625 -1.609375 0.3125q-1.0 0.171875 -2.3125 0.171875q-1.140625 0 -1.921875 -0.328125q-0.765625 -0.328125 -1.25 -0.9375q-0.46875 -0.609375 -0.6875 -1.4375q-0.203125 -0.828125 -0.203125 -1.828125l0 -5.546875l1.765625 0l0 5.15625q0 1.8125 0.5625 2.59375q0.578125 0.78125 1.921875 0.78125q0.296875 0 0.59375 -0.015625q0.3125 -0.03125 0.578125 -0.046875q0.265625 -0.03125 0.484375 -0.0625q0.21875 -0.03125 0.3125 -0.0625l0 -8.34375l1.765625 0l0 9.59375zm9.693115 -4.640625q0 -1.734375 -0.859375 -2.65625q-0.84375 -0.9375 -2.265625 -0.9375q-0.796875 0 -1.25 0.0625q-0.453125 0.0625 -0.71875 0.125l0 6.234375q0.328125 0.265625 0.9375 0.515625q0.609375 0.25 1.328125 0.25q0.765625 0 1.296875 -0.265625q0.546875 -0.28125 0.890625 -0.765625q0.34375 -0.484375 0.484375 -1.140625q0.15625 -0.65625 0.15625 -1.421875zm1.84375 0q0 1.125 -0.296875 2.078125q-0.28125 0.9375 -0.859375 1.625q-0.5625 0.6875 -1.390625 1.078125q-0.828125 0.375 -1.890625 0.375q-0.859375 0 -1.515625 -0.234375q-0.65625 -0.234375 -0.984375 -0.4375l0 3.953125l-1.765625 0l0 -13.09375q0.625 -0.15625 1.5625 -0.328125q0.953125 -0.1875 2.1875 -0.1875q1.140625 0 2.046875 0.375q0.921875 0.359375 1.5625 1.03125q0.640625 0.65625 0.984375 1.609375q0.359375 0.953125 0.359375 2.15625zm4.5822754 3.65625q1.09375 0 1.609375 -0.28125q0.53125 -0.296875 0.53125 -0.921875q0 -0.640625 -0.515625 -1.015625q-0.515625 -0.390625 -1.6875 -0.859375q-0.578125 -0.234375 -1.109375 -0.46875q-0.515625 -0.234375 -0.890625 -0.5625q-0.375 -0.328125 -0.609375 -0.78125q-0.234375 -0.453125 -0.234375 -1.125q0 -1.3125 0.96875 -2.078125q0.96875 -0.765625 2.640625 -0.765625q0.421875 0 0.84375 0.046875q0.421875 0.046875 0.78125 0.109375q0.359375 0.0625 0.625 0.140625q0.28125 0.078125 0.4375 0.140625l-0.328125 1.515625q-0.28125 -0.15625 -0.890625 -0.3125q-0.609375 -0.15625 -1.46875 -0.15625q-0.734375 0 -1.296875 0.296875q-0.546875 0.28125 -0.546875 0.921875q0 0.3125 0.125 0.5625q0.125 0.25 0.375 0.453125q0.265625 0.1875 0.640625 0.359375q0.390625 0.171875 0.921875 0.359375q0.703125 0.265625 1.25 0.53125q0.546875 0.25 0.9375 0.59375q0.390625 0.34375 0.59375 0.828125q0.21875 0.484375 0.21875 1.1875q0 1.375 -1.015625 2.078125q-1.015625 0.703125 -2.90625 0.703125q-1.296875 0 -2.046875 -0.21875q-0.734375 -0.21875 -1.0 -0.34375l0.3125 -1.515625q0.3125 0.109375 0.96875 0.34375q0.671875 0.234375 1.765625 0.234375zm7.6800537 -8.609375l3.75 0l0 1.484375l-3.75 0l0 4.546875q0 0.75 0.109375 1.234375q0.125 0.484375 0.34375 0.765625q0.234375 0.265625 0.578125 0.390625q0.34375 0.109375 0.796875 0.109375q0.796875 0 1.28125 -0.171875q0.484375 -0.1875 0.671875 -0.265625l0.34375 1.453125q-0.265625 0.140625 -0.9375 0.328125q-0.65625 0.203125 -1.515625 0.203125q-1.0 0 -1.65625 -0.25q-0.65625 -0.25 -1.0625 -0.765625q-0.390625 -0.515625 -0.5625 -1.265625q-0.15625 -0.75 -0.15625 -1.734375l0 -8.828125l1.765625 -0.296875l0 3.0625zm9.499817 -0.21875q0.21875 0 0.515625 0.03125q0.296875 0.03125 0.578125 0.078125q0.296875 0.046875 0.53125 0.09375q0.234375 0.046875 0.34375 0.09375l-0.296875 1.53125q-0.21875 -0.078125 -0.703125 -0.171875q-0.484375 -0.109375 -1.234375 -0.109375q-0.5 0 -0.984375 0.109375q-0.484375 0.09375 -0.640625 0.140625l0 8.296875l-1.765625 0l0 -9.46875q0.625 -0.21875 1.5625 -0.421875q0.9375 -0.203125 2.09375 -0.203125zm2.998169 5.171875q0 -1.3125 0.375 -2.28125q0.390625 -0.984375 1.015625 -1.625q0.625 -0.65625 1.4375 -0.96875q0.8125 -0.328125 1.671875 -0.328125q2.0 0 3.0625 1.25q1.0625 1.234375 1.0625 3.78125q0 0.109375 0 0.296875q0 0.1875 -0.015625 0.328125l-6.765625 0q0.109375 1.546875 0.890625 2.34375q0.78125 0.796875 2.4375 0.796875q0.921875 0 1.5625 -0.15625q0.640625 -0.171875 0.953125 -0.328125l0.25 1.484375q-0.3125 0.171875 -1.125 0.359375q-0.8125 0.203125 -1.828125 0.203125q-1.296875 0 -2.234375 -0.390625q-0.9375 -0.390625 -1.546875 -1.078125q-0.609375 -0.6875 -0.90625 -1.625q-0.296875 -0.9375 -0.296875 -2.0625zm6.78125 -0.96875q0.015625 -1.203125 -0.609375 -1.96875q-0.609375 -0.765625 -1.6875 -0.765625q-0.609375 0 -1.078125 0.234375q-0.46875 0.234375 -0.796875 0.625q-0.3125 0.375 -0.5 0.875q-0.171875 0.484375 -0.234375 1.0l4.90625 0zm7.538269 4.625q0.625 0 1.109375 -0.03125q0.484375 -0.03125 0.8125 -0.109375l0 -2.9375q-0.1875 -0.109375 -0.625 -0.171875q-0.421875 -0.0625 -1.03125 -0.0625q-0.390625 0 -0.84375 0.0625q-0.4375 0.046875 -0.8125 0.234375q-0.375 0.171875 -0.625 0.484375q-0.234375 0.3125 -0.234375 0.828125q0 0.953125 0.59375 1.328125q0.609375 0.375 1.65625 0.375zm-0.140625 -8.859375q1.0625 0 1.78125 0.28125q0.734375 0.265625 1.171875 0.78125q0.453125 0.5 0.640625 1.1875q0.203125 0.6875 0.203125 1.53125l0 6.171875q-0.234375 0.03125 -0.640625 0.109375q-0.40625 0.0625 -0.921875 0.109375q-0.515625 0.0625 -1.109375 0.109375q-0.59375 0.046875 -1.1875 0.046875q-0.84375 0 -1.546875 -0.171875q-0.703125 -0.171875 -1.21875 -0.53125q-0.5 -0.375 -0.796875 -0.984375q-0.28125 -0.609375 -0.28125 -1.453125q0 -0.828125 0.328125 -1.40625q0.34375 -0.59375 0.90625 -0.953125q0.578125 -0.359375 1.328125 -0.53125q0.765625 -0.171875 1.609375 -0.171875q0.265625 0 0.546875 0.03125q0.28125 0.015625 0.53125 0.0625q0.265625 0.046875 0.453125 0.09375q0.1875 0.03125 0.265625 0.0625l0 -0.5q0 -0.4375 -0.09375 -0.859375q-0.09375 -0.4375 -0.34375 -0.765625q-0.25 -0.328125 -0.671875 -0.53125q-0.421875 -0.203125 -1.109375 -0.203125q-0.875 0 -1.53125 0.125q-0.65625 0.125 -0.984375 0.25l-0.203125 -1.453125q0.34375 -0.15625 1.140625 -0.296875q0.796875 -0.140625 1.734375 -0.140625zm6.5354004 0.53125q0.609375 -0.15625 1.609375 -0.328125q1.0 -0.171875 2.3125 -0.171875q0.953125 0 1.59375 0.265625q0.640625 0.25 1.078125 0.75q0.140625 -0.09375 0.421875 -0.265625q0.28125 -0.171875 0.703125 -0.328125q0.421875 -0.171875 0.921875 -0.296875q0.515625 -0.125 1.109375 -0.125q1.140625 0 1.859375 0.34375q0.71875 0.328125 1.125 0.9375q0.421875 0.609375 0.5625 1.453125q0.140625 0.828125 0.140625 1.8125l0 5.546875l-1.765625 0l0 -5.171875q0 -0.875 -0.09375 -1.5q-0.078125 -0.625 -0.3125 -1.03125q-0.234375 -0.421875 -0.65625 -0.625q-0.40625 -0.203125 -1.046875 -0.203125q-0.890625 0 -1.46875 0.234375q-0.578125 0.234375 -0.796875 0.4375q0.15625 0.484375 0.234375 1.078125q0.078125 0.59375 0.078125 1.234375l0 5.546875l-1.765625 0l0 -5.171875q0 -0.875 -0.109375 -1.5q-0.09375 -0.625 -0.328125 -1.03125q-0.234375 -0.421875 -0.640625 -0.625q-0.40625 -0.203125 -1.03125 -0.203125q-0.265625 0 -0.578125 0.015625q-0.296875 0.015625 -0.578125 0.046875q-0.28125 0.03125 -0.515625 0.078125q-0.21875 0.03125 -0.296875 0.046875l0 8.34375l-1.765625 0l0 -9.59375z" fill-rule="nonzero"></path><path fill="#000000" fill-opacity="0.0" d="m483.9265 204.99738l-45.007874 -36.944885" fill-rule="evenodd"></path><path stroke="#000000" stroke-width="1.0" stroke-linejoin="round" stroke-linecap="butt" d="m483.9265 204.99738l-40.37021 -33.138046" fill-rule="evenodd"></path><path fill="#000000" stroke="#000000" stroke-width="1.0" stroke-linecap="butt" d="m444.60428 170.58264l-4.555664 -1.6026154l2.4597168 4.156006z" fill-rule="evenodd"></path><path fill="#000000" fill-opacity="0.0" d="m483.9265 204.99738l-39.716553 36.881897" fill-rule="evenodd"></path><path stroke="#000000" stroke-width="1.0" stroke-linejoin="round" stroke-linecap="butt" d="m483.9265 204.99738l-35.319885 32.79904" fill-rule="evenodd"></path><path fill="#000000" stroke="#000000" stroke-width="1.0" stroke-linecap="butt" d="m447.48264 236.58607l-2.201416 4.298401l4.449341 -1.8777008z" fill-rule="evenodd"></path><path fill="#000000" fill-opacity="0.0" d="m175.30708 400.5433l332.8819 0l0 44.283478l-332.8819 0z" fill-rule="evenodd"></path><path fill="#000000" d="m212.05379 414.29144l0 2.078125l-4.046875 0l0 11.09375l-2.40625 0l0 -11.09375l-4.046875 0l0 -2.078125l10.5 0zm7.1769714 5.3125q-0.28125 -0.109375 -0.796875 -0.203125q-0.5 -0.109375 -1.15625 -0.109375q-0.390625 0 -0.8125 0.078125q-0.421875 0.078125 -0.59375 0.125l0 7.96875l-2.296875 0l0 -9.46875q0.65625 -0.234375 1.65625 -0.453125q1.0 -0.21875 2.21875 -0.21875q0.21875 0 0.515625 0.03125q0.3125 0.015625 0.609375 0.0625q0.3125 0.046875 0.59375 0.125q0.296875 0.0625 0.46875 0.125l-0.40625 1.9375zm5.346588 6.25q1.0625 0 1.625 -0.125l0 -2.546875q-0.1875 -0.046875 -0.5625 -0.109375q-0.359375 -0.0625 -0.796875 -0.0625q-0.375 0 -0.765625 0.0625q-0.390625 0.0625 -0.703125 0.21875q-0.3125 0.140625 -0.5 0.421875q-0.1875 0.265625 -0.1875 0.6875q0 0.828125 0.5 1.140625q0.515625 0.3125 1.390625 0.3125zm-0.1875 -8.578125q1.140625 0 1.921875 0.296875q0.78125 0.28125 1.234375 0.796875q0.46875 0.5 0.671875 1.234375q0.203125 0.734375 0.203125 1.609375l0 6.015625q-0.53125 0.125 -1.609375 0.28125q-1.0625 0.15625 -2.421875 0.15625q-0.890625 0 -1.640625 -0.171875q-0.734375 -0.171875 -1.265625 -0.546875q-0.515625 -0.375 -0.8125 -0.984375q-0.28125 -0.609375 -0.28125 -1.5q0 -0.859375 0.328125 -1.4375q0.328125 -0.59375 0.890625 -0.96875q0.578125 -0.375 1.328125 -0.53125q0.75 -0.15625 1.578125 -0.15625q0.375 0 0.78125 0.046875q0.421875 0.046875 0.90625 0.15625l0 -0.375q0 -0.40625 -0.09375 -0.765625q-0.09375 -0.359375 -0.34375 -0.625q-0.234375 -0.28125 -0.625 -0.4375q-0.390625 -0.15625 -0.96875 -0.15625q-0.796875 0 -1.46875 0.125q-0.671875 0.109375 -1.078125 0.265625l-0.296875 -1.875q0.4375 -0.140625 1.265625 -0.296875q0.84375 -0.15625 1.796875 -0.15625zm8.462433 5.1875q0 1.515625 0.71875 2.390625q0.734375 0.859375 2.0 0.859375q0.546875 0 0.9375 -0.046875q0.390625 -0.046875 0.640625 -0.109375l0 -5.6875q-0.296875 -0.21875 -0.8125 -0.390625q-0.5 -0.1875 -1.0625 -0.1875q-1.265625 0 -1.84375 0.859375q-0.578125 0.859375 -0.578125 2.3125zm6.59375 4.703125q-0.6875 0.203125 -1.71875 0.375q-1.03125 0.171875 -2.171875 0.171875q-1.1875 0 -2.125 -0.359375q-0.921875 -0.359375 -1.578125 -1.03125q-0.65625 -0.6875 -1.015625 -1.640625q-0.34375 -0.96875 -0.34375 -2.15625q0 -1.1875 0.296875 -2.140625q0.296875 -0.953125 0.859375 -1.640625q0.578125 -0.6875 1.390625 -1.046875q0.828125 -0.375 1.890625 -0.375q0.71875 0 1.265625 0.171875q0.546875 0.171875 0.953125 0.375l0 -4.765625l2.296875 -0.390625l0 14.453125zm5.0410004 0.296875l-2.296875 0l0 -9.9375l2.296875 0l0 9.9375zm0.25 -12.84375q0 0.640625 -0.421875 1.03125q-0.421875 0.375 -0.984375 0.375q-0.59375 0 -1.015625 -0.375q-0.40625 -0.390625 -0.40625 -1.03125q0 -0.671875 0.40625 -1.046875q0.421875 -0.375 1.015625 -0.375q0.5625 0 0.984375 0.375q0.421875 0.375 0.421875 1.046875zm2.4616241 0.28125l2.296875 -0.375l0 3.0l3.546875 0l0 1.921875l-3.546875 0l0 4.046875q0 1.1875 0.375 1.703125q0.390625 0.515625 1.296875 0.515625q0.640625 0 1.125 -0.125q0.484375 -0.140625 0.765625 -0.25l0.375 1.828125q-0.390625 0.15625 -1.046875 0.34375q-0.640625 0.1875 -1.515625 0.1875q-1.0625 0 -1.78125 -0.28125q-0.703125 -0.296875 -1.125 -0.828125q-0.421875 -0.546875 -0.59375 -1.3125q-0.171875 -0.78125 -0.171875 -1.765625l0 -8.609375zm10.235825 12.5625l-2.2968903 0l0 -9.9375l2.2968903 0l0 9.9375zm0.25 -12.84375q0 0.640625 -0.421875 1.03125q-0.421875 0.375 -0.984375 0.375q-0.59376526 0 -1.0156403 -0.375q-0.40625 -0.390625 -0.40625 -1.03125q0 -0.671875 0.40625 -1.046875q0.421875 -0.375 1.0156403 -0.375q0.5625 0 0.984375 0.375q0.421875 0.375 0.421875 1.046875zm11.570984 7.859375q0 1.1875 -0.34375 2.15625q-0.34375 0.96875 -0.96875 1.65625q-0.625 0.671875 -1.515625 1.0625q-0.875 0.375 -1.9375 0.375q-1.078125 0 -1.953125 -0.375q-0.859375 -0.390625 -1.5 -1.0625q-0.625 -0.6875 -0.984375 -1.65625q-0.34375 -0.96875 -0.34375 -2.15625q0 -1.171875 0.34375 -2.125q0.359375 -0.96875 1.0 -1.640625q0.640625 -0.6875 1.515625 -1.0625q0.875 -0.375 1.921875 -0.375q1.03125 0 1.921875 0.375q0.890625 0.375 1.515625 1.0625q0.625 0.671875 0.96875 1.640625q0.359375 0.953125 0.359375 2.125zm-2.359375 0q0 -1.46875 -0.640625 -2.328125q-0.625 -0.875 -1.765625 -0.875q-1.140625 0 -1.78125 0.875q-0.640625 0.859375 -0.640625 2.328125q0 1.5 0.640625 2.375q0.640625 0.875 1.78125 0.875q1.140625 0 1.765625 -0.875q0.640625 -0.875 0.640625 -2.375zm4.531433 -4.625q0.65625 -0.1875 1.71875 -0.359375q1.0625 -0.171875 2.359375 -0.171875q1.21875 0 2.03125 0.328125q0.8125 0.328125 1.296875 0.9375q0.484375 0.59375 0.6875 1.4375q0.203125 0.84375 0.203125 1.84375l0 5.59375l-2.296875 0l0 -5.21875q0 -0.796875 -0.109375 -1.359375q-0.09375 -0.5625 -0.34375 -0.90625q-0.234375 -0.359375 -0.640625 -0.515625q-0.40625 -0.171875 -1.0 -0.171875q-0.4375 0 -0.921875 0.0625q-0.46875 0.046875 -0.6875 0.09375l0 8.015625l-2.296875 0l0 -9.609375zm14.398285 8.0q1.0625 0 1.625 -0.125l0 -2.546875q-0.1875 -0.046875 -0.5625 -0.109375q-0.359375 -0.0625 -0.796875 -0.0625q-0.375 0 -0.765625 0.0625q-0.390625 0.0625 -0.703125 0.21875q-0.3125 0.140625 -0.5 0.421875q-0.1875 0.265625 -0.1875 0.6875q0 0.828125 0.5 1.140625q0.515625 0.3125 1.390625 0.3125zm-0.1875 -8.578125q1.140625 0 1.921875 0.296875q0.78125 0.28125 1.234375 0.796875q0.46875 0.5 0.671875 1.234375q0.203125 0.734375 0.203125 1.609375l0 6.015625q-0.53125 0.125 -1.609375 0.28125q-1.0625 0.15625 -2.421875 0.15625q-0.890625 0 -1.640625 -0.171875q-0.734375 -0.171875 -1.265625 -0.546875q-0.515625 -0.375 -0.8125 -0.984375q-0.28125 -0.609375 -0.28125 -1.5q0 -0.859375 0.328125 -1.4375q0.328125 -0.59375 0.890625 -0.96875q0.578125 -0.375 1.328125 -0.53125q0.75 -0.15625 1.578125 -0.15625q0.375 0 0.78125 0.046875q0.421875 0.046875 0.90625 0.15625l0 -0.375q0 -0.40625 -0.09375 -0.765625q-0.09375 -0.359375 -0.34375 -0.625q-0.234375 -0.28125 -0.625 -0.4375q-0.390625 -0.15625 -0.96875 -0.15625q-0.796875 0 -1.46875 0.125q-0.671875 0.109375 -1.078125 0.265625l-0.296875 -1.875q0.4375 -0.140625 1.265625 -0.296875q0.84375 -0.15625 1.796875 -0.15625zm10.118683 10.375q-1.03125 -0.015625 -1.703125 -0.21875q-0.671875 -0.21875 -1.078125 -0.609375q-0.390625 -0.390625 -0.5625 -0.96875q-0.15625 -0.578125 -0.15625 -1.3125l0 -11.4375l2.296875 -0.390625l0 11.390625q0 0.421875 0.0625 0.703125q0.078125 0.28125 0.25 0.484375q0.171875 0.203125 0.453125 0.3125q0.296875 0.09375 0.765625 0.15625l-0.328125 1.890625zm14.872192 -2.265625l0 2.078125l-8.328125 0l0 -13.171875l2.390625 0l0 11.09375l5.9375 0zm10.509308 -2.90625q0 1.1875 -0.34375 2.15625q-0.34375 0.96875 -0.96875 1.65625q-0.625 0.671875 -1.515625 1.0625q-0.875 0.375 -1.9375 0.375q-1.078125 0 -1.953125 -0.375q-0.859375 -0.390625 -1.5 -1.0625q-0.625 -0.6875 -0.984375 -1.65625q-0.34375 -0.96875 -0.34375 -2.15625q0 -1.171875 0.34375 -2.125q0.359375 -0.96875 1.0 -1.640625q0.640625 -0.6875 1.515625 -1.0625q0.875 -0.375 1.921875 -0.375q1.03125 0 1.921875 0.375q0.890625 0.375 1.515625 1.0625q0.625 0.671875 0.96875 1.640625q0.359375 0.953125 0.359375 2.125zm-2.359375 0q0 -1.46875 -0.640625 -2.328125q-0.625 -0.875 -1.765625 -0.875q-1.140625 0 -1.78125 0.875q-0.640625 0.859375 -0.640625 2.328125q0 1.5 0.640625 2.375q0.640625 0.875 1.78125 0.875q1.140625 0 1.765625 -0.875q0.640625 -0.875 0.640625 -2.375zm8.015808 3.375q1.0625 0 1.625 -0.125l0 -2.546875q-0.1875 -0.046875 -0.5625 -0.109375q-0.359375 -0.0625 -0.796875 -0.0625q-0.375 0 -0.765625 0.0625q-0.390625 0.0625 -0.703125 0.21875q-0.3125 0.140625 -0.5 0.421875q-0.1875 0.265625 -0.1875 0.6875q0 0.828125 0.5 1.140625q0.515625 0.3125 1.390625 0.3125zm-0.1875 -8.578125q1.140625 0 1.921875 0.296875q0.78125 0.28125 1.234375 0.796875q0.46875 0.5 0.671875 1.234375q0.203125 0.734375 0.203125 1.609375l0 6.015625q-0.53125 0.125 -1.609375 0.28125q-1.0625 0.15625 -2.421875 0.15625q-0.890625 0 -1.640625 -0.171875q-0.734375 -0.171875 -1.265625 -0.546875q-0.515625 -0.375 -0.8125 -0.984375q-0.28125 -0.609375 -0.28125 -1.5q0 -0.859375 0.328125 -1.4375q0.328125 -0.59375 0.890625 -0.96875q0.578125 -0.375 1.328125 -0.53125q0.75 -0.15625 1.578125 -0.15625q0.375 0 0.78125 0.046875q0.421875 0.046875 0.90625 0.15625l0 -0.375q0 -0.40625 -0.09375 -0.765625q-0.09375 -0.359375 -0.34375 -0.625q-0.234375 -0.28125 -0.625 -0.4375q-0.390625 -0.15625 -0.96875 -0.15625q-0.796875 0 -1.46875 0.125q-0.671875 0.109375 -1.078125 0.265625l-0.296875 -1.875q0.4375 -0.140625 1.265625 -0.296875q0.84375 -0.15625 1.796875 -0.15625zm8.462433 5.1875q0 1.515625 0.71875 2.390625q0.734375 0.859375 2.0 0.859375q0.546875 0 0.9375 -0.046875q0.390625 -0.046875 0.640625 -0.109375l0 -5.6875q-0.296875 -0.21875 -0.8125 -0.390625q-0.5 -0.1875 -1.0625 -0.1875q-1.265625 0 -1.84375 0.859375q-0.578125 0.859375 -0.578125 2.3125zm6.59375 4.703125q-0.6875 0.203125 -1.71875 0.375q-1.03125 0.171875 -2.171875 0.171875q-1.1875 0 -2.125 -0.359375q-0.921875 -0.359375 -1.578125 -1.03125q-0.65625 -0.6875 -1.015625 -1.640625q-0.34375 -0.96875 -0.34375 -2.15625q0 -1.1875 0.296875 -2.140625q0.296875 -0.953125 0.859375 -1.640625q0.578125 -0.6875 1.390625 -1.046875q0.828125 -0.375 1.890625 -0.375q0.71875 0 1.265625 0.171875q0.546875 0.171875 0.953125 0.375l0 -4.765625l2.296875 -0.390625l0 14.453125zm11.153534 0.453125q-1.046875 0 -2.109375 -0.078125q-1.0625 -0.0625 -1.859375 -0.265625l0 -12.796875q0.421875 -0.0625 0.890625 -0.125q0.46875 -0.078125 0.96875 -0.109375q0.5 -0.046875 0.984375 -0.0625q0.484375 -0.015625 0.921875 -0.015625q1.1875 0 2.21875 0.1875q1.03125 0.171875 1.78125 0.59375q0.75 0.40625 1.15625 1.09375q0.421875 0.6875 0.421875 1.6875q0 0.9375 -0.453125 1.609375q-0.4375 0.65625 -1.234375 1.0625q1.203125 0.390625 1.765625 1.171875q0.578125 0.78125 0.578125 1.984375q0 2.03125 -1.484375 3.046875q-1.484375 1.015625 -4.546875 1.015625zm-1.609375 -6.078125l0 4.0q0.390625 0.046875 0.84375 0.0625q0.46875 0.015625 0.84375 0.015625q0.734375 0 1.375 -0.09375q0.640625 -0.09375 1.09375 -0.328125q0.46875 -0.25 0.75 -0.640625q0.28125 -0.40625 0.28125 -1.03125q0 -1.109375 -0.828125 -1.546875q-0.8125 -0.4375 -2.25 -0.4375l-2.109375 0zm0 -1.890625l1.6875 0q1.359375 0 2.140625 -0.390625q0.78125 -0.390625 0.78125 -1.390625q0 -0.953125 -0.8125 -1.34375q-0.796875 -0.40625 -2.09375 -0.40625q-0.546875 0 -0.984375 0.015625q-0.421875 0.015625 -0.71875 0.0625l0 3.453125zm13.272797 6.203125q1.0625 0 1.625 -0.125l0 -2.546875q-0.1875 -0.046875 -0.5625 -0.109375q-0.359375 -0.0625 -0.796875 -0.0625q-0.375 0 -0.765625 0.0625q-0.390625 0.0625 -0.703125 0.21875q-0.3125 0.140625 -0.5 0.421875q-0.1875 0.265625 -0.1875 0.6875q0 0.828125 0.5 1.140625q0.515625 0.3125 1.390625 0.3125zm-0.1875 -8.578125q1.140625 0 1.921875 0.296875q0.78125 0.28125 1.234375 0.796875q0.46875 0.5 0.671875 1.234375q0.203125 0.734375 0.203125 1.609375l0 6.015625q-0.53125 0.125 -1.609375 0.28125q-1.0625 0.15625 -2.421875 0.15625q-0.890625 0 -1.640625 -0.171875q-0.734375 -0.171875 -1.265625 -0.546875q-0.515625 -0.375 -0.8125 -0.984375q-0.28125 -0.609375 -0.28125 -1.5q0 -0.859375 0.328125 -1.4375q0.328125 -0.59375 0.890625 -0.96875q0.578125 -0.375 1.328125 -0.53125q0.75 -0.15625 1.578125 -0.15625q0.375 0 0.78125 0.046875q0.421875 0.046875 0.90625 0.15625l0 -0.375q0 -0.40625 -0.09375 -0.765625q-0.09375 -0.359375 -0.34375 -0.625q-0.234375 -0.28125 -0.625 -0.4375q-0.390625 -0.15625 -0.96875 -0.15625q-0.796875 0 -1.46875 0.125q-0.671875 0.109375 -1.078125 0.265625l-0.296875 -1.875q0.4375 -0.140625 1.265625 -0.296875q0.84375 -0.15625 1.796875 -0.15625zm10.118683 10.375q-1.03125 -0.015625 -1.703125 -0.21875q-0.671875 -0.21875 -1.078125 -0.609375q-0.390625 -0.390625 -0.5625 -0.96875q-0.15625 -0.578125 -0.15625 -1.3125l0 -11.4375l2.296875 -0.390625l0 11.390625q0 0.421875 0.0625 0.703125q0.078125 0.28125 0.25 0.484375q0.171875 0.203125 0.453125 0.3125q0.296875 0.09375 0.765625 0.15625l-0.328125 1.890625zm5.5721436 -1.796875q1.0625 0 1.625 -0.125l0 -2.546875q-0.1875 -0.046875 -0.5625 -0.109375q-0.359375 -0.0625 -0.796875 -0.0625q-0.375 0 -0.765625 0.0625q-0.390625 0.0625 -0.703125 0.21875q-0.3125 0.140625 -0.5 0.421875q-0.1875 0.265625 -0.1875 0.6875q0 0.828125 0.5 1.140625q0.515625 0.3125 1.390625 0.3125zm-0.1875 -8.578125q1.140625 0 1.921875 0.296875q0.78125 0.28125 1.234375 0.796875q0.46875 0.5 0.671875 1.234375q0.203125 0.734375 0.203125 1.609375l0 6.015625q-0.53125 0.125 -1.609375 0.28125q-1.0625 0.15625 -2.421875 0.15625q-0.890625 0 -1.640625 -0.171875q-0.734375 -0.171875 -1.265625 -0.546875q-0.515625 -0.375 -0.8125 -0.984375q-0.28125 -0.609375 -0.28125 -1.5q0 -0.859375 0.328125 -1.4375q0.328125 -0.59375 0.890625 -0.96875q0.578125 -0.375 1.328125 -0.53125q0.75 -0.15625 1.578125 -0.15625q0.375 0 0.78125 0.046875q0.421875 0.046875 0.90625 0.15625l0 -0.375q0 -0.40625 -0.09375 -0.765625q-0.09375 -0.359375 -0.34375 -0.625q-0.234375 -0.28125 -0.625 -0.4375q-0.390625 -0.15625 -0.96875 -0.15625q-0.796875 0 -1.46875 0.125q-0.671875 0.109375 -1.078125 0.265625l-0.296875 -1.875q0.4375 -0.140625 1.265625 -0.296875q0.84375 -0.15625 1.796875 -0.15625zm6.665558 0.578125q0.65625 -0.1875 1.71875 -0.359375q1.0625 -0.171875 2.359375 -0.171875q1.21875 0 2.03125 0.328125q0.8125 0.328125 1.296875 0.9375q0.484375 0.59375 0.6875 1.4375q0.203125 0.84375 0.203125 1.84375l0 5.59375l-2.296875 0l0 -5.21875q0 -0.796875 -0.109375 -1.359375q-0.09375 -0.5625 -0.34375 -0.90625q-0.234375 -0.359375 -0.640625 -0.515625q-0.40625 -0.171875 -1.0 -0.171875q-0.4375 0 -0.921875 0.0625q-0.46875 0.046875 -0.6875 0.09375l0 8.015625l-2.296875 0l0 -9.609375zm10.35141 4.65625q0 -1.109375 0.34375 -2.0625q0.34375 -0.96875 0.984375 -1.671875q0.640625 -0.703125 1.546875 -1.09375q0.90625 -0.40625 2.046875 -0.40625q1.40625 0 2.671875 0.515625l-0.5 1.875q-0.40625 -0.171875 -0.90625 -0.28125q-0.5 -0.109375 -1.078125 -0.109375q-1.34375 0 -2.046875 0.84375q-0.703125 0.84375 -0.703125 2.390625q0 1.46875 0.65625 2.34375q0.671875 0.859375 2.25 0.859375q0.59375 0 1.15625 -0.109375q0.578125 -0.109375 1.0 -0.28125l0.3125 1.890625q-0.375 0.1875 -1.15625 0.34375q-0.765625 0.15625 -1.578125 0.15625q-1.265625 0 -2.21875 -0.390625q-0.9375 -0.390625 -1.5625 -1.078125q-0.609375 -0.703125 -0.921875 -1.65625q-0.296875 -0.96875 -0.296875 -2.078125zm8.805756 0.03125q0 -1.3125 0.390625 -2.296875q0.390625 -0.984375 1.03125 -1.640625q0.65625 -0.65625 1.484375 -0.984375q0.84375 -0.34375 1.71875 -0.34375q2.046875 0 3.1875 1.28125q1.15625 1.265625 1.15625 3.796875q0 0.1875 -0.015625 0.421875q0 0.234375 -0.015625 0.4375l-6.5625 0q0.09375 1.1875 0.84375 1.84375q0.765625 0.65625 2.1875 0.65625q0.828125 0 1.515625 -0.140625q0.703125 -0.15625 1.109375 -0.328125l0.296875 1.875q-0.1875 0.09375 -0.53125 0.203125q-0.328125 0.109375 -0.75 0.1875q-0.421875 0.09375 -0.921875 0.140625q-0.5 0.0625 -1.015625 0.0625q-1.296875 0 -2.265625 -0.390625q-0.96875 -0.390625 -1.609375 -1.078125q-0.625 -0.703125 -0.9375 -1.640625q-0.296875 -0.9375 -0.296875 -2.0625zm6.671875 -1.03125q0 -0.46875 -0.140625 -0.890625q-0.125 -0.4375 -0.390625 -0.75q-0.25 -0.3125 -0.625 -0.484375q-0.359375 -0.1875 -0.875 -0.1875q-0.53125 0 -0.9375 0.203125q-0.390625 0.203125 -0.671875 0.53125q-0.265625 0.3125 -0.421875 0.734375q-0.15625 0.40625 -0.203125 0.84375l4.265625 0zm10.1996155 -1.90625q-0.28125 -0.109375 -0.796875 -0.203125q-0.5 -0.109375 -1.15625 -0.109375q-0.390625 0 -0.8125 0.078125q-0.421875 0.078125 -0.59375 0.125l0 7.96875l-2.296875 0l0 -9.46875q0.65625 -0.234375 1.65625 -0.453125q1.0 -0.21875 2.21875 -0.21875q0.21875 0 0.515625 0.03125q0.3125 0.015625 0.609375 0.0625q0.3125 0.046875 0.59375 0.125q0.296875 0.0625 0.46875 0.125l-0.40625 1.9375zm9.193512 -5.3125q0.40625 0.734375 0.921875 1.78125q0.515625 1.03125 1.046875 2.1875q0.53125 1.140625 1.046875 2.328125q0.53125 1.1875 0.96875 2.203125q0.4375 -1.015625 0.953125 -2.203125q0.515625 -1.1875 1.046875 -2.328125q0.53125 -1.15625 1.03125 -2.1875q0.515625 -1.046875 0.9375 -1.78125l2.171875 0q0.171875 1.453125 0.3125 3.078125q0.15625 1.625 0.28125 3.328125q0.125 1.6875 0.21875 3.40625q0.109375 1.71875 0.1875 3.359375l-2.359375 0q-0.078125 -2.296875 -0.1875 -4.71875q-0.09375 -2.4375 -0.296875 -4.71875q-0.21875 0.4375 -0.5 1.046875q-0.28125 0.59375 -0.609375 1.3125q-0.3125 0.71875 -0.65625 1.484375q-0.328125 0.75 -0.640625 1.46875q-0.3125 0.703125 -0.578125 1.328125q-0.265625 0.609375 -0.453125 1.046875l-1.796875 0q-0.1875 -0.4375 -0.453125 -1.0625q-0.265625 -0.625 -0.578125 -1.328125q-0.3125 -0.71875 -0.65625 -1.484375q-0.328125 -0.765625 -0.65625 -1.46875q-0.3125 -0.703125 -0.59375 -1.3125q-0.28125 -0.625 -0.5000305 -1.03125q-0.203125 2.28125 -0.3125 4.71875q-0.109375 2.421875 -0.171875 4.71875l-2.359375 0q0.078125 -1.640625 0.171875 -3.375q0.109375 -1.75 0.234375 -3.46875q0.125 -1.71875 0.265625 -3.328125q0.15625 -1.625 0.328125 -3.0l2.2344055 0zm22.492126 8.1875q0 1.1875 -0.34375 2.15625q-0.34375 0.96875 -0.96875 1.65625q-0.625 0.671875 -1.515625 1.0625q-0.875 0.375 -1.9375 0.375q-1.078125 0 -1.953125 -0.375q-0.859375 -0.390625 -1.5 -1.0625q-0.625 -0.6875 -0.984375 -1.65625q-0.34375 -0.96875 -0.34375 -2.15625q0 -1.171875 0.34375 -2.125q0.359375 -0.96875 1.0 -1.640625q0.640625 -0.6875 1.515625 -1.0625q0.875 -0.375 1.921875 -0.375q1.03125 0 1.921875 0.375q0.890625 0.375 1.515625 1.0625q0.625 0.671875 0.96875 1.640625q0.359375 0.953125 0.359375 2.125zm-2.359375 0q0 -1.46875 -0.640625 -2.328125q-0.625 -0.875 -1.765625 -0.875q-1.140625 0 -1.78125 0.875q-0.640625 0.859375 -0.640625 2.328125q0 1.5 0.640625 2.375q0.640625 0.875 1.78125 0.875q1.140625 0 1.765625 -0.875q0.640625 -0.875 0.640625 -2.375zm6.328308 -0.015625q0 1.515625 0.71875 2.390625q0.734375 0.859375 2.0 0.859375q0.546875 0 0.9375 -0.046875q0.390625 -0.046875 0.640625 -0.109375l0 -5.6875q-0.296875 -0.21875 -0.8125 -0.390625q-0.5 -0.1875 -1.0625 -0.1875q-1.265625 0 -1.84375 0.859375q-0.578125 0.859375 -0.578125 2.3125zm6.59375 4.703125q-0.6875 0.203125 -1.71875 0.375q-1.03125 0.171875 -2.171875 0.171875q-1.1875 0 -2.125 -0.359375q-0.921875 -0.359375 -1.578125 -1.03125q-0.65625 -0.6875 -1.015625 -1.640625q-0.34375 -0.96875 -0.34375 -2.15625q0 -1.1875 0.296875 -2.140625q0.296875 -0.953125 0.859375 -1.640625q0.578125 -0.6875 1.390625 -1.046875q0.828125 -0.375 1.890625 -0.375q0.71875 0 1.265625 0.171875q0.546875 0.171875 0.953125 0.375l0 -4.765625l2.296875 -0.390625l0 14.453125zm2.165985 -4.625q0 -1.3125 0.390625 -2.296875q0.390625 -0.984375 1.03125 -1.640625q0.65625 -0.65625 1.484375 -0.984375q0.84375 -0.34375 1.71875 -0.34375q2.046875 0 3.1875 1.28125q1.15625 1.265625 1.15625 3.796875q0 0.1875 -0.015625 0.421875q0 0.234375 -0.015625 0.4375l-6.5625 0q0.09375 1.1875 0.84375 1.84375q0.765625 0.65625 2.1875 0.65625q0.828125 0 1.515625 -0.140625q0.703125 -0.15625 1.109375 -0.328125l0.296875 1.875q-0.1875 0.09375 -0.53125 0.203125q-0.328125 0.109375 -0.75 0.1875q-0.421875 0.09375 -0.921875 0.140625q-0.5 0.0625 -1.015625 0.0625q-1.296875 0 -2.265625 -0.390625q-0.96875 -0.390625 -1.609375 -1.078125q-0.625 -0.703125 -0.9375 -1.640625q-0.296875 -0.9375 -0.296875 -2.0625zm6.671875 -1.03125q0 -0.46875 -0.140625 -0.890625q-0.125 -0.4375 -0.390625 -0.75q-0.25 -0.3125 -0.625 -0.484375q-0.359375 -0.1875 -0.875 -0.1875q-0.53125 0 -0.9375 0.203125q-0.390625 0.203125 -0.671875 0.53125q-0.265625 0.3125 -0.421875 0.734375q-0.15625 0.40625 -0.203125 0.84375l4.265625 0zm7.9964905 6.140625q-1.03125 -0.015625 -1.703125 -0.21875q-0.671875 -0.21875 -1.078125 -0.609375q-0.390625 -0.390625 -0.5625 -0.96875q-0.15625 -0.578125 -0.15625 -1.3125l0 -11.4375l2.296875 -0.390625l0 11.390625q0 0.421875 0.0625 0.703125q0.078125 0.28125 0.25 0.484375q0.171875 0.203125 0.453125 0.3125q0.296875 0.09375 0.765625 0.15625l-0.328125 1.890625z" fill-rule="nonzero"></path></g></svg>

